<svg width="40" height="43" viewBox="0 0 40 43" fill="none" xmlns="http://www.w3.org/2000/svg">
<path fill-rule="evenodd" clip-rule="evenodd" d="M31.9874 6.10974L28.9144 3.03669C24.8653 -1.01237 18.3 -1.01237 14.2509 3.03669L13.3281 3.9595L16.9126 7.54397L17.8354 6.62117C19.9048 4.55176 23.2605 4.55176 25.3299 6.62117L28.403 9.69421L31.9874 6.10974Z" fill="#F4A434"/>
<path fill-rule="evenodd" clip-rule="evenodd" d="M13.3283 3.95936L9.75195 7.53567L13.3364 11.1201L16.9127 7.54384L13.3283 3.95936Z" fill="#7EC1D9"/>
<path fill-rule="evenodd" clip-rule="evenodd" d="M3.5368 28.4149L5.52537 30.4035L9.10984 26.819L7.12127 24.8304C5.05186 22.761 5.05186 19.4053 7.12127 17.3359L13.3368 11.1203L9.75236 7.53587L3.5368 13.7514C-0.512266 17.8005 -0.512266 24.3658 3.5368 28.4149Z" fill="#051225"/>
<path fill-rule="evenodd" clip-rule="evenodd" d="M14.2516 39.1297C18.301 43.1786 24.8658 43.1788 28.915 39.1296L25.3305 35.5451C23.2612 37.6144 19.9059 37.6147 17.836 35.5451C17.8359 35.5451 17.836 35.5452 17.836 35.5451L9.10987 26.819L5.52539 30.4035L14.2516 39.1297Z" fill="#7EC1D9"/>
<path fill-rule="evenodd" clip-rule="evenodd" d="M28.9146 39.1295L32.3956 35.6485L28.8111 32.064L25.3301 35.545L28.9146 39.1295Z" fill="#F4A434"/>
<path fill-rule="evenodd" clip-rule="evenodd" d="M36.7098 17.3841C38.3376 17.3841 39.6568 16.0645 39.6568 14.4371C39.6568 13.0707 38.7273 11.9217 37.4659 11.588L31.9878 6.10985L28.4033 9.69433L33.8471 15.1381C34.1616 16.4272 35.324 17.3841 36.7098 17.3841Z" fill="#051225"/>
</svg>
