<svg width="212" height="44" viewBox="0 0 212 44" fill="none" xmlns="http://www.w3.org/2000/svg">
<path d="M66.913 31.1009H56.5156C56.2496 31.1009 55.9614 31.0714 55.651 31.0123C55.348 30.9458 55.0451 30.846 54.7421 30.713C54.4465 30.58 54.162 30.41 53.8886 30.2031C53.6151 29.9888 53.3713 29.7338 53.157 29.4382C52.9501 29.1353 52.7838 28.7879 52.6582 28.3963C52.5325 27.9972 52.4697 27.5502 52.4697 27.055V19.2514C52.4697 18.9854 52.4993 18.7009 52.5584 18.3979C52.6249 18.0876 52.7247 17.7846 52.8577 17.489C52.9907 17.186 53.1644 16.8978 53.3787 16.6244C53.593 16.351 53.8479 16.1108 54.1435 15.9039C54.4465 15.6896 54.7938 15.5196 55.1855 15.394C55.5771 15.2684 56.0205 15.2055 56.5156 15.2055H66.913V18.0876H56.5156C56.1387 18.0876 55.8505 18.1873 55.651 18.3868C55.4515 18.5864 55.3517 18.882 55.3517 19.2736V27.055C55.3517 27.4245 55.4515 27.7127 55.651 27.9196C55.8579 28.1192 56.1461 28.2189 56.5156 28.2189H66.913V31.1009Z" fill="#051225"/>
<path d="M86.0784 24.6718C86.0784 25.6399 85.9121 26.5304 85.5796 27.3432C85.247 28.1561 84.7852 28.8582 84.194 29.4493C83.6028 30.0405 82.9008 30.5024 82.0879 30.8349C81.2824 31.1601 80.4031 31.3226 79.4498 31.3226H75.548C74.5947 31.3226 73.7116 31.1601 72.8987 30.8349C72.0859 30.5024 71.3838 30.0405 70.7927 29.4493C70.2015 28.8582 69.7359 28.1561 69.396 27.3432C69.0635 26.5304 68.8972 25.6399 68.8972 24.6718V21.6346C68.8972 20.674 69.0635 19.7872 69.396 18.9743C69.7359 18.1541 70.2015 17.452 70.7927 16.8682C71.3838 16.2771 72.0859 15.8152 72.8987 15.4827C73.7116 15.1501 74.5947 14.9839 75.548 14.9839H79.4498C80.4031 14.9839 81.2824 15.1501 82.0879 15.4827C82.9008 15.8152 83.6028 16.2771 84.194 16.8682C84.7852 17.452 85.247 18.1541 85.5796 18.9743C85.9121 19.7872 86.0784 20.674 86.0784 21.6346V24.6718ZM83.1964 21.6346C83.1964 21.0656 83.104 20.552 82.9193 20.0939C82.7419 19.6283 82.487 19.233 82.1544 18.9078C81.8293 18.5753 81.4339 18.3203 80.9684 18.143C80.5102 17.9582 80.004 17.8659 79.4498 17.8659H75.548C74.9864 17.8659 74.4728 17.9582 74.0072 18.143C73.549 18.3203 73.1537 18.5753 72.8211 18.9078C72.4886 19.233 72.23 19.6283 72.0452 20.0939C71.8679 20.552 71.7792 21.0656 71.7792 21.6346V24.6718C71.7792 25.2409 71.8679 25.7581 72.0452 26.2237C72.23 26.6819 72.4886 27.0772 72.8211 27.4098C73.1537 27.7349 73.549 27.9899 74.0072 28.1746C74.4728 28.352 74.9864 28.4406 75.548 28.4406H79.4276C79.9892 28.4406 80.4991 28.352 80.9573 28.1746C81.4228 27.9899 81.8219 27.7349 82.1544 27.4098C82.487 27.0772 82.7419 26.6819 82.9193 26.2237C83.104 25.7581 83.1964 25.2409 83.1964 24.6718V21.6346Z" fill="#051225"/>
<path d="M104.811 29.8705C104.811 30.0775 104.771 30.2696 104.69 30.4469C104.616 30.6243 104.512 30.7795 104.379 30.9125C104.254 31.0381 104.102 31.1379 103.925 31.2118C103.747 31.2857 103.559 31.3226 103.359 31.3226C103.182 31.3226 103.001 31.2894 102.816 31.2229C102.639 31.1564 102.48 31.0492 102.34 30.9014L91.8092 19.9054V31.1009H88.9271V16.4359C88.9271 16.1404 89.0084 15.8743 89.171 15.6379C89.341 15.394 89.5553 15.2129 89.8139 15.0947C90.0873 14.9839 90.3682 14.958 90.6564 15.0171C90.9446 15.0688 91.1921 15.2019 91.399 15.4162L101.929 26.4011V15.2055H104.811V29.8705Z" fill="#051225"/>
<path d="M122.536 18.0876H116.184V31.1009H113.302V18.0876H106.94V15.2055H122.536V18.0876Z" fill="#051225"/>
<path d="M140.548 20.5484C140.548 21.206 140.467 21.7935 140.305 22.3108C140.142 22.8281 139.92 23.2863 139.639 23.6853C139.366 24.077 139.048 24.4132 138.686 24.694C138.324 24.9748 137.943 25.2076 137.544 25.3923C137.153 25.5697 136.754 25.699 136.347 25.7803C135.948 25.8616 135.571 25.9022 135.217 25.9022L141.236 31.1009H136.78L130.772 25.9022H128.699V23.0202H135.217C135.579 22.9907 135.908 22.9168 136.203 22.7985C136.506 22.6729 136.765 22.5066 136.979 22.2997C137.201 22.0928 137.371 21.8453 137.489 21.5571C137.607 21.2615 137.666 20.9252 137.666 20.5484V18.7305C137.666 18.5679 137.644 18.446 137.6 18.3647C137.563 18.276 137.511 18.2132 137.445 18.1762C137.386 18.1319 137.319 18.106 137.245 18.0986C137.179 18.0913 137.116 18.0876 137.057 18.0876H127.546V31.1009H124.664V16.6576C124.664 16.4581 124.701 16.2697 124.775 16.0923C124.849 15.915 124.949 15.7598 125.074 15.6268C125.207 15.4938 125.362 15.3903 125.54 15.3164C125.717 15.2425 125.909 15.2055 126.116 15.2055H137.057C137.7 15.2055 138.243 15.3238 138.686 15.5603C139.13 15.7893 139.488 16.0812 139.761 16.4359C140.042 16.7833 140.242 17.1601 140.36 17.5666C140.486 17.973 140.548 18.3536 140.548 18.7083V20.5484Z" fill="#051225"/>
<path d="M160.124 24.6718C160.124 25.6399 159.958 26.5304 159.625 27.3432C159.293 28.1561 158.831 28.8582 158.239 29.4493C157.648 30.0405 156.946 30.5024 156.133 30.8349C155.328 31.1601 154.449 31.3226 153.495 31.3226H149.593C148.64 31.3226 147.757 31.1601 146.944 30.8349C146.131 30.5024 145.429 30.0405 144.838 29.4493C144.247 28.8582 143.781 28.1561 143.441 27.3432C143.109 26.5304 142.943 25.6399 142.943 24.6718V21.6346C142.943 20.674 143.109 19.7872 143.441 18.9743C143.781 18.1541 144.247 17.452 144.838 16.8682C145.429 16.2771 146.131 15.8152 146.944 15.4827C147.757 15.1501 148.64 14.9839 149.593 14.9839H153.495C154.449 14.9839 155.328 15.1501 156.133 15.4827C156.946 15.8152 157.648 16.2771 158.239 16.8682C158.831 17.452 159.293 18.1541 159.625 18.9743C159.958 19.7872 160.124 20.674 160.124 21.6346V24.6718ZM157.242 21.6346C157.242 21.0656 157.149 20.552 156.965 20.0939C156.787 19.6283 156.532 19.233 156.2 18.9078C155.875 18.5753 155.479 18.3203 155.014 18.143C154.556 17.9582 154.049 17.8659 153.495 17.8659H149.593C149.032 17.8659 148.518 17.9582 148.053 18.143C147.595 18.3203 147.199 18.5753 146.867 18.9078C146.534 19.233 146.275 19.6283 146.091 20.0939C145.913 20.552 145.825 21.0656 145.825 21.6346V24.6718C145.825 25.2409 145.913 25.7581 146.091 26.2237C146.275 26.6819 146.534 27.0772 146.867 27.4098C147.199 27.7349 147.595 27.9899 148.053 28.1746C148.518 28.352 149.032 28.4406 149.593 28.4406H153.473C154.035 28.4406 154.545 28.352 155.003 28.1746C155.468 27.9899 155.867 27.7349 156.2 27.4098C156.532 27.0772 156.787 26.6819 156.965 26.2237C157.149 25.7581 157.242 25.2409 157.242 24.6718V21.6346Z" fill="#051225"/>
<path d="M177.571 31.1009H164.425C164.218 31.1009 164.026 31.064 163.848 30.9901C163.671 30.9162 163.516 30.8164 163.383 30.6908C163.257 30.5578 163.157 30.4026 163.083 30.2253C163.01 30.0479 162.973 29.8558 162.973 29.6489V15.2055H165.855V28.2189H177.571V31.1009Z" fill="#051225"/>
<path d="M194.287 31.1009H181.14C180.933 31.1009 180.741 31.064 180.564 30.9901C180.387 30.9162 180.231 30.8164 180.098 30.6908C179.973 30.5578 179.873 30.4026 179.799 30.2253C179.725 30.0479 179.688 29.8558 179.688 29.6489V15.2055H182.57V28.2189H194.287V31.1009Z" fill="#051225"/>
<path d="M212 31.1009H209.118V27.1991H198.987V31.1009H196.105V23.1532C196.105 21.9931 196.304 20.9252 196.703 19.9498C197.102 18.9743 197.657 18.1356 198.366 17.4336C199.075 16.7315 199.914 16.1847 200.882 15.793C201.85 15.4014 202.907 15.2055 204.052 15.2055H210.548C210.747 15.2055 210.936 15.2425 211.113 15.3164C211.291 15.3903 211.446 15.4938 211.579 15.6268C211.712 15.7598 211.815 15.915 211.889 16.0923C211.963 16.2697 212 16.4581 212 16.6576V31.1009ZM198.987 24.3171H209.118V18.0876H204.052C203.964 18.0876 203.775 18.1023 203.487 18.1319C203.206 18.1541 202.877 18.2169 202.501 18.3203C202.131 18.4238 201.739 18.5827 201.326 18.797C200.912 19.0113 200.531 19.3069 200.184 19.6838C199.836 20.0606 199.548 20.5336 199.319 21.1026C199.098 21.6642 198.987 22.3478 198.987 23.1532V24.3171Z" fill="#051225"/>
<path fill-rule="evenodd" clip-rule="evenodd" d="M31.4879 7.02649L28.4149 3.95344C24.3658 -0.0956202 17.8005 -0.0956202 13.7514 3.95344L12.8286 4.87625L16.4131 8.46072L17.3359 7.53792C19.4053 5.46851 22.761 5.46851 24.8304 7.53792L27.9035 10.611L31.4879 7.02649Z" fill="#F4A434"/>
<path fill-rule="evenodd" clip-rule="evenodd" d="M12.8288 4.87611L9.25244 8.45242L12.8369 12.0369L16.4132 8.46059L12.8288 4.87611Z" fill="#7EC1D9"/>
<path fill-rule="evenodd" clip-rule="evenodd" d="M3.0368 29.3316L5.02537 31.3202L8.60984 27.7357L6.62127 25.7472C4.55186 23.6778 4.55186 20.3221 6.62127 18.2527L12.8368 12.0371L9.25236 8.45262L3.0368 14.6682C-1.01227 18.7172 -1.01227 25.2826 3.0368 29.3316Z" fill="#051225"/>
<path fill-rule="evenodd" clip-rule="evenodd" d="M13.7516 40.0465C17.801 44.0953 24.3658 44.0955 28.415 40.0464L24.8305 36.4619C22.7612 38.5312 19.4059 38.5314 17.336 36.4619C17.3359 36.4618 17.336 36.4619 17.336 36.4619L8.60987 27.7358L5.02539 31.3203L13.7516 40.0465Z" fill="#7EC1D9"/>
<path fill-rule="evenodd" clip-rule="evenodd" d="M28.4146 40.0463L31.8956 36.5653L28.3111 32.9808L24.8301 36.4618L28.4146 40.0463Z" fill="#F4A434"/>
<path fill-rule="evenodd" clip-rule="evenodd" d="M36.2098 18.3009C37.8376 18.3009 39.1568 16.9812 39.1568 15.3539C39.1568 13.9874 38.2273 12.8385 36.9659 12.5047L31.4878 7.0266L27.9033 10.6111L33.3471 16.0549C33.6616 17.3439 34.824 18.3009 36.2098 18.3009Z" fill="#051225"/>
</svg>
