<svg width="922" height="473" viewBox="0 0 922 473" fill="none" xmlns="http://www.w3.org/2000/svg">
<path d="M8.00001 398L8.00001 399L7.00001 399L7.00001 398L8.00001 398ZM914 398L914 397L915 397L915 398L914 398ZM914.707 472.707C914.317 473.098 913.683 473.098 913.293 472.707L906.929 466.343C906.538 465.953 906.538 465.32 906.929 464.929C907.319 464.538 907.953 464.538 908.343 464.929L914 470.586L919.657 464.929C920.047 464.538 920.681 464.538 921.071 464.929C921.462 465.32 921.462 465.953 921.071 466.343L914.707 472.707ZM7.29293 0.292908C7.68346 -0.0976258 8.31662 -0.0976257 8.70715 0.292908L15.0711 6.65686C15.4616 7.04739 15.4616 7.68054 15.0711 8.07108C14.6806 8.46158 14.0474 8.46158 13.6569 8.07108L8.00004 2.41422L2.34319 8.07107C1.95266 8.46158 1.3195 8.46158 0.928973 8.07107C0.538448 7.68054 0.538448 7.04739 0.928973 6.65686L7.29293 0.292908ZM9.00004 6.83823C9.00004 7.39053 8.55233 7.83823 8.00004 7.83823C7.44776 7.83823 7.00004 7.39053 7.00004 6.83823L9.00004 6.83823ZM7.00004 18.5147C7.00004 17.9624 7.44775 17.5147 8.00004 17.5147C8.55232 17.5147 9.00004 17.9624 9.00004 18.5147L7.00004 18.5147ZM9.00004 30.1912C9.00004 30.7435 8.55232 31.1912 8.00004 31.1912C7.44775 31.1912 7.00004 30.7435 7.00004 30.1912L9.00004 30.1912ZM7.00004 41.8676C7.00004 41.3154 7.44775 40.8676 8.00004 40.8676C8.55232 40.8676 9.00004 41.3154 9.00004 41.8676L7.00004 41.8676ZM9.00004 53.5441C9.00004 54.0964 8.55232 54.5441 8.00004 54.5441C7.44775 54.5441 7.00004 54.0964 7.00004 53.5441L9.00004 53.5441ZM7.00004 65.2206C7.00004 64.6683 7.44775 64.2206 8.00004 64.2206C8.55232 64.2206 9.00004 64.6683 9.00004 65.2206L7.00004 65.2206ZM9.00003 76.8971C9.00003 77.4493 8.55232 77.8971 8.00003 77.8971C7.44775 77.8971 7.00003 77.4493 7.00003 76.8971L9.00003 76.8971ZM7.00003 88.5735C7.00003 88.0212 7.44775 87.5735 8.00003 87.5735C8.55232 87.5735 9.00003 88.0212 9.00003 88.5735L7.00003 88.5735ZM9.00003 100.25C9.00003 100.802 8.55232 101.25 8.00003 101.25C7.44775 101.25 7.00003 100.802 7.00003 100.25L9.00003 100.25ZM7.00003 111.926C7.00003 111.374 7.44775 110.926 8.00003 110.926C8.55232 110.926 9.00003 111.374 9.00003 111.926L7.00003 111.926ZM9.00003 123.603C9.00003 124.155 8.55232 124.603 8.00003 124.603C7.44775 124.603 7.00003 124.155 7.00003 123.603L9.00003 123.603ZM7.00003 135.279C7.00003 134.727 7.44774 134.279 8.00003 134.279C8.55231 134.279 9.00003 134.727 9.00003 135.279L7.00003 135.279ZM9.00003 146.956C9.00003 147.508 8.55231 147.956 8.00003 147.956C7.44774 147.956 7.00003 147.508 7.00003 146.956L9.00003 146.956ZM7.00003 158.632C7.00003 158.08 7.44774 157.632 8.00003 157.632C8.55231 157.632 9.00003 158.08 9.00003 158.632L7.00003 158.632ZM9.00003 170.309C9.00003 170.861 8.55231 171.309 8.00003 171.309C7.44774 171.309 7.00003 170.861 7.00003 170.309L9.00003 170.309ZM7.00003 181.985C7.00003 181.433 7.44774 180.985 8.00003 180.985C8.55231 180.985 9.00003 181.433 9.00003 181.985L7.00003 181.985ZM9.00002 193.662C9.00002 194.214 8.55231 194.662 8.00002 194.662C7.44774 194.662 7.00002 194.214 7.00002 193.662L9.00002 193.662ZM7.00002 205.338C7.00002 204.786 7.44774 204.338 8.00002 204.338C8.55231 204.338 9.00002 204.786 9.00002 205.338L7.00002 205.338ZM9.00002 217.015C9.00002 217.567 8.55231 218.015 8.00002 218.015C7.44774 218.015 7.00002 217.567 7.00002 217.015L9.00002 217.015ZM7.00002 228.691C7.00002 228.139 7.44774 227.691 8.00002 227.691C8.55231 227.691 9.00002 228.139 9.00002 228.691L7.00002 228.691ZM9.00002 240.368C9.00002 240.92 8.5523 241.368 8.00002 241.368C7.44774 241.368 7.00002 240.92 7.00002 240.368L9.00002 240.368ZM7.00002 252.044C7.00002 251.492 7.44773 251.044 8.00002 251.044C8.5523 251.044 9.00002 251.492 9.00002 252.044L7.00002 252.044ZM9.00002 263.721C9.00002 264.273 8.5523 264.721 8.00002 264.721C7.44773 264.721 7.00002 264.273 7.00002 263.721L9.00002 263.721ZM7.00002 275.397C7.00002 274.845 7.44773 274.397 8.00002 274.397C8.5523 274.397 9.00002 274.845 9.00002 275.397L7.00002 275.397ZM9.00002 287.074C9.00002 287.626 8.5523 288.074 8.00002 288.074C7.44773 288.074 7.00002 287.626 7.00002 287.074L9.00002 287.074ZM7.00002 298.75C7.00002 298.198 7.44773 297.75 8.00002 297.75C8.5523 297.75 9.00002 298.198 9.00002 298.75L7.00002 298.75ZM9.00001 310.426C9.00001 310.979 8.5523 311.426 8.00001 311.426C7.44773 311.426 7.00001 310.979 7.00001 310.426L9.00001 310.426ZM7.00001 322.103C7.00001 321.551 7.44773 321.103 8.00001 321.103C8.5523 321.103 9.00001 321.551 9.00001 322.103L7.00001 322.103ZM9.00001 333.779C9.00001 334.332 8.5523 334.779 8.00001 334.779C7.44773 334.779 7.00001 334.332 7.00001 333.779L9.00001 333.779ZM7.00001 345.456C7.00001 344.904 7.44773 344.456 8.00001 344.456C8.5523 344.456 9.00001 344.904 9.00001 345.456L7.00001 345.456ZM9.00001 357.132C9.00001 357.685 8.55229 358.132 8.00001 358.132C7.44773 358.132 7.00001 357.685 7.00001 357.132L9.00001 357.132ZM7.00001 368.809C7.00001 368.257 7.44772 367.809 8.00001 367.809C8.55229 367.809 9.00001 368.257 9.00001 368.809L7.00001 368.809ZM9.00001 380.485C9.00001 381.038 8.55229 381.485 8.00001 381.485C7.44772 381.485 7.00001 381.038 7.00001 380.485L9.00001 380.485ZM7.00001 392.162C7.00001 391.61 7.44772 391.162 8.00001 391.162C8.55229 391.162 9.00001 391.61 9.00001 392.162L7.00001 392.162ZM13.9605 397C14.5128 397 14.9605 397.448 14.9605 398C14.9605 398.552 14.5128 399 13.9605 399L13.9605 397ZM25.8816 399C25.3293 399 24.8816 398.552 24.8816 398C24.8816 397.448 25.3293 397 25.8816 397L25.8816 399ZM37.8026 397C38.3549 397 38.8026 397.448 38.8026 398C38.8026 398.552 38.3549 399 37.8026 399L37.8026 397ZM49.7237 399C49.1714 399 48.7237 398.552 48.7237 398C48.7237 397.448 49.1714 397 49.7237 397L49.7237 399ZM61.6447 397C62.197 397 62.6447 397.448 62.6447 398C62.6447 398.552 62.197 399 61.6447 399L61.6447 397ZM73.5658 399C73.0135 399 72.5658 398.552 72.5658 398C72.5658 397.448 73.0135 397 73.5658 397L73.5658 399ZM85.4868 397C86.0391 397 86.4868 397.448 86.4868 398C86.4868 398.552 86.0391 399 85.4868 399L85.4868 397ZM97.4079 399C96.8556 399 96.4079 398.552 96.4079 398C96.4079 397.448 96.8556 397 97.4079 397L97.4079 399ZM109.329 397C109.881 397 110.329 397.448 110.329 398C110.329 398.552 109.881 399 109.329 399L109.329 397ZM121.25 399C120.698 399 120.25 398.552 120.25 398C120.25 397.448 120.698 397 121.25 397L121.25 399ZM133.171 397C133.723 397 134.171 397.448 134.171 398C134.171 398.552 133.723 399 133.171 399L133.171 397ZM145.092 399C144.54 399 144.092 398.552 144.092 398C144.092 397.448 144.54 397 145.092 397L145.092 399ZM157.013 397C157.565 397 158.013 397.448 158.013 398C158.013 398.552 157.565 399 157.013 399L157.013 397ZM168.934 399C168.382 399 167.934 398.552 167.934 398C167.934 397.448 168.382 397 168.934 397L168.934 399ZM180.855 397C181.408 397 181.855 397.448 181.855 398C181.855 398.552 181.408 399 180.855 399L180.855 397ZM192.776 399C192.224 399 191.776 398.552 191.776 398C191.776 397.448 192.224 397 192.776 397L192.776 399ZM204.697 397C205.25 397 205.697 397.448 205.697 398C205.697 398.552 205.25 399 204.697 399L204.697 397ZM216.618 399C216.066 399 215.618 398.552 215.618 398C215.618 397.448 216.066 397 216.618 397L216.618 399ZM228.539 397C229.092 397 229.539 397.448 229.539 398C229.539 398.552 229.092 399 228.539 399L228.539 397ZM240.461 399C239.908 399 239.461 398.552 239.461 398C239.461 397.448 239.908 397 240.461 397L240.461 399ZM252.382 397C252.934 397 253.382 397.448 253.382 398C253.382 398.552 252.934 399 252.382 399L252.382 397ZM264.303 399C263.75 399 263.303 398.552 263.303 398C263.303 397.448 263.75 397 264.303 397L264.303 399ZM276.224 397C276.776 397 277.224 397.448 277.224 398C277.224 398.552 276.776 399 276.224 399L276.224 397ZM288.145 399C287.592 399 287.145 398.552 287.145 398C287.145 397.448 287.592 397 288.145 397L288.145 399ZM300.066 397C300.618 397 301.066 397.448 301.066 398C301.066 398.552 300.618 399 300.066 399L300.066 397ZM311.987 399C311.435 399 310.987 398.552 310.987 398C310.987 397.448 311.435 397 311.987 397L311.987 399ZM323.908 397C324.46 397 324.908 397.448 324.908 398C324.908 398.552 324.46 399 323.908 399L323.908 397ZM335.829 399C335.277 399 334.829 398.552 334.829 398C334.829 397.448 335.277 397 335.829 397L335.829 399ZM347.75 397C348.302 397 348.75 397.448 348.75 398C348.75 398.552 348.302 399 347.75 399L347.75 397ZM359.671 399C359.119 399 358.671 398.552 358.671 398C358.671 397.448 359.119 397 359.671 397L359.671 399ZM371.592 397C372.144 397 372.592 397.448 372.592 398C372.592 398.552 372.144 399 371.592 399L371.592 397ZM383.513 399C382.961 399 382.513 398.552 382.513 398C382.513 397.448 382.961 397 383.513 397L383.513 399ZM395.434 397C395.986 397 396.434 397.448 396.434 398C396.434 398.552 395.986 399 395.434 399L395.434 397ZM407.355 399C406.803 399 406.355 398.552 406.355 398C406.355 397.448 406.803 397 407.355 397L407.355 399ZM419.276 397C419.829 397 420.276 397.448 420.276 398C420.276 398.552 419.829 399 419.276 399L419.276 397ZM431.197 399C430.645 399 430.197 398.552 430.197 398C430.197 397.448 430.645 397 431.197 397L431.197 399ZM443.118 397C443.671 397 444.118 397.448 444.118 398C444.118 398.552 443.671 399 443.118 399L443.118 397ZM455.039 399C454.487 399 454.039 398.552 454.039 398C454.039 397.448 454.487 397 455.039 397L455.039 399ZM466.96 397C467.513 397 467.96 397.448 467.96 398C467.96 398.552 467.513 399 466.96 399L466.96 397ZM478.882 399C478.329 399 477.882 398.552 477.882 398C477.882 397.448 478.329 397 478.882 397L478.882 399ZM490.803 397C491.355 397 491.803 397.448 491.803 398C491.803 398.552 491.355 399 490.803 399L490.803 397ZM502.724 399C502.171 399 501.724 398.552 501.724 398C501.724 397.448 502.171 397 502.724 397L502.724 399ZM514.645 397C515.197 397 515.645 397.448 515.645 398C515.645 398.552 515.197 399 514.645 399L514.645 397ZM526.566 399C526.013 399 525.566 398.552 525.566 398C525.566 397.448 526.013 397 526.566 397L526.566 399ZM538.487 397C539.039 397 539.487 397.448 539.487 398C539.487 398.552 539.039 399 538.487 399L538.487 397ZM550.408 399C549.856 399 549.408 398.552 549.408 398C549.408 397.448 549.856 397 550.408 397L550.408 399ZM562.329 397C562.881 397 563.329 397.448 563.329 398C563.329 398.552 562.881 399 562.329 399L562.329 397ZM574.25 399C573.698 399 573.25 398.552 573.25 398C573.25 397.448 573.698 397 574.25 397L574.25 399ZM586.171 397C586.723 397 587.171 397.448 587.171 398C587.171 398.552 586.723 399 586.171 399L586.171 397ZM598.092 399C597.54 399 597.092 398.552 597.092 398C597.092 397.448 597.54 397 598.092 397L598.092 399ZM610.013 397C610.566 397 611.013 397.448 611.013 398C611.013 398.552 610.566 399 610.013 399L610.013 397ZM621.934 399C621.382 399 620.934 398.552 620.934 398C620.934 397.448 621.382 397 621.934 397L621.934 399ZM633.855 397C634.408 397 634.855 397.448 634.855 398C634.855 398.552 634.408 399 633.855 399L633.855 397ZM645.776 399C645.224 399 644.776 398.552 644.776 398C644.776 397.448 645.224 397 645.776 397L645.776 399ZM657.698 397C658.25 397 658.698 397.448 658.698 398C658.698 398.552 658.25 399 657.698 399L657.698 397ZM669.619 399C669.066 399 668.619 398.552 668.619 398C668.619 397.448 669.066 397 669.619 397L669.619 399ZM681.54 397C682.092 397 682.54 397.448 682.54 398C682.54 398.552 682.092 399 681.54 399L681.54 397ZM693.461 399C692.909 399 692.461 398.552 692.461 398C692.461 397.448 692.909 397 693.461 397L693.461 399ZM705.382 397C705.934 397 706.382 397.448 706.382 398C706.382 398.552 705.934 399 705.382 399L705.382 397ZM717.303 399C716.751 399 716.303 398.552 716.303 398C716.303 397.448 716.751 397 717.303 397L717.303 399ZM729.224 397C729.776 397 730.224 397.448 730.224 398C730.224 398.552 729.776 399 729.224 399L729.224 397ZM741.145 399C740.593 399 740.145 398.552 740.145 398C740.145 397.448 740.593 397 741.145 397L741.145 399ZM753.066 397C753.619 397 754.066 397.448 754.066 398C754.066 398.552 753.619 399 753.066 399L753.066 397ZM764.987 399C764.435 399 763.987 398.552 763.987 398C763.987 397.448 764.435 397 764.987 397L764.987 399ZM776.908 397C777.461 397 777.908 397.448 777.908 398C777.908 398.552 777.461 399 776.908 399L776.908 397ZM788.83 399C788.277 399 787.83 398.552 787.83 398C787.83 397.448 788.277 397 788.83 397L788.83 399ZM800.751 397C801.303 397 801.751 397.448 801.751 398C801.751 398.552 801.303 399 800.751 399L800.751 397ZM812.672 399C812.119 399 811.672 398.552 811.672 398C811.672 397.448 812.119 397 812.672 397L812.672 399ZM824.593 397C825.145 397 825.593 397.448 825.593 398C825.593 398.552 825.145 399 824.593 399L824.593 397ZM836.514 399C835.962 399 835.514 398.552 835.514 398C835.514 397.448 835.962 397 836.514 397L836.514 399ZM848.435 397C848.987 397 849.435 397.448 849.435 398C849.435 398.552 848.987 399 848.435 399L848.435 397ZM860.356 399C859.804 399 859.356 398.552 859.356 398C859.356 397.448 859.804 397 860.356 397L860.356 399ZM872.277 397C872.829 397 873.277 397.448 873.277 398C873.277 398.552 872.829 399 872.277 399L872.277 397ZM884.198 399C883.646 399 883.198 398.552 883.198 398C883.198 397.448 883.646 397 884.198 397L884.198 399ZM896.119 397C896.672 397 897.119 397.448 897.119 398C897.119 398.552 896.672 399 896.119 399L896.119 397ZM908.04 399C907.488 399 907.04 398.552 907.04 398C907.04 397.448 907.488 397 908.04 397L908.04 399ZM915 404.167C915 404.719 914.552 405.167 914 405.167C913.448 405.167 913 404.719 913 404.167L915 404.167ZM913 416.5C913 415.948 913.448 415.5 914 415.5C914.552 415.5 915 415.948 915 416.5L913 416.5ZM915 428.833C915 429.386 914.552 429.833 914 429.833C913.448 429.833 913 429.386 913 428.833L915 428.833ZM913 441.167C913 440.614 913.448 440.167 914 440.167C914.552 440.167 915 440.614 915 441.167L913 441.167ZM915 453.5C915 454.052 914.552 454.5 914 454.5C913.448 454.5 913 454.052 913 453.5L915 453.5ZM913 465.833C913 465.281 913.448 464.833 914 464.833C914.552 464.833 915 465.281 915 465.833L913 465.833ZM9.00004 1L9.00004 6.83823L7.00004 6.83823L7.00004 1L9.00004 1ZM9.00004 18.5147L9.00004 30.1912L7.00004 30.1912L7.00004 18.5147L9.00004 18.5147ZM9.00004 41.8676L9.00004 53.5441L7.00004 53.5441L7.00004 41.8676L9.00004 41.8676ZM9.00004 65.2206L9.00003 76.8971L7.00003 76.8971L7.00004 65.2206L9.00004 65.2206ZM9.00003 88.5735L9.00003 100.25L7.00003 100.25L7.00003 88.5735L9.00003 88.5735ZM9.00003 111.926L9.00003 123.603L7.00003 123.603L7.00003 111.926L9.00003 111.926ZM9.00003 135.279L9.00003 146.956L7.00003 146.956L7.00003 135.279L9.00003 135.279ZM9.00003 158.632L9.00003 170.309L7.00003 170.309L7.00003 158.632L9.00003 158.632ZM9.00003 181.985L9.00002 193.662L7.00002 193.662L7.00003 181.985L9.00003 181.985ZM9.00002 205.338L9.00002 217.015L7.00002 217.015L7.00002 205.338L9.00002 205.338ZM9.00002 228.691L9.00002 240.368L7.00002 240.368L7.00002 228.691L9.00002 228.691ZM9.00002 252.044L9.00002 263.721L7.00002 263.721L7.00002 252.044L9.00002 252.044ZM9.00002 275.397L9.00002 287.074L7.00002 287.074L7.00002 275.397L9.00002 275.397ZM9.00002 298.75L9.00001 310.426L7.00001 310.426L7.00002 298.75L9.00002 298.75ZM9.00001 322.103L9.00001 333.779L7.00001 333.779L7.00001 322.103L9.00001 322.103ZM9.00001 345.456L9.00001 357.132L7.00001 357.132L7.00001 345.456L9.00001 345.456ZM9.00001 368.809L9.00001 380.485L7.00001 380.485L7.00001 368.809L9.00001 368.809ZM9.00001 392.162L9.00001 398L7.00001 398L7.00001 392.162L9.00001 392.162ZM8.00001 397L13.9605 397L13.9605 399L8.00001 399L8.00001 397ZM25.8816 397L37.8026 397L37.8026 399L25.8816 399L25.8816 397ZM49.7237 397L61.6447 397L61.6447 399L49.7237 399L49.7237 397ZM73.5658 397L85.4868 397L85.4868 399L73.5658 399L73.5658 397ZM97.4079 397L109.329 397L109.329 399L97.4079 399L97.4079 397ZM121.25 397L133.171 397L133.171 399L121.25 399L121.25 397ZM145.092 397L157.013 397L157.013 399L145.092 399L145.092 397ZM168.934 397L180.855 397L180.855 399L168.934 399L168.934 397ZM192.776 397L204.697 397L204.697 399L192.776 399L192.776 397ZM216.618 397L228.539 397L228.539 399L216.618 399L216.618 397ZM240.461 397L252.382 397L252.382 399L240.461 399L240.461 397ZM264.303 397L276.224 397L276.224 399L264.303 399L264.303 397ZM288.145 397L300.066 397L300.066 399L288.145 399L288.145 397ZM311.987 397L323.908 397L323.908 399L311.987 399L311.987 397ZM335.829 397L347.75 397L347.75 399L335.829 399L335.829 397ZM359.671 397L371.592 397L371.592 399L359.671 399L359.671 397ZM383.513 397L395.434 397L395.434 399L383.513 399L383.513 397ZM407.355 397L419.276 397L419.276 399L407.355 399L407.355 397ZM431.197 397L443.118 397L443.118 399L431.197 399L431.197 397ZM455.039 397L466.96 397L466.96 399L455.039 399L455.039 397ZM478.882 397L490.803 397L490.803 399L478.882 399L478.882 397ZM502.724 397L514.645 397L514.645 399L502.724 399L502.724 397ZM526.566 397L538.487 397L538.487 399L526.566 399L526.566 397ZM550.408 397L562.329 397L562.329 399L550.408 399L550.408 397ZM574.25 397L586.171 397L586.171 399L574.25 399L574.25 397ZM598.092 397L610.013 397L610.013 399L598.092 399L598.092 397ZM621.934 397L633.855 397L633.855 399L621.934 399L621.934 397ZM645.776 397L657.698 397L657.698 399L645.776 399L645.776 397ZM669.619 397L681.54 397L681.54 399L669.619 399L669.619 397ZM693.461 397L705.382 397L705.382 399L693.461 399L693.461 397ZM717.303 397L729.224 397L729.224 399L717.303 399L717.303 397ZM741.145 397L753.066 397L753.066 399L741.145 399L741.145 397ZM764.987 397L776.908 397L776.908 399L764.987 399L764.987 397ZM788.83 397L800.751 397L800.751 399L788.83 399L788.83 397ZM812.672 397L824.593 397L824.593 399L812.672 399L812.672 397ZM836.514 397L848.435 397L848.435 399L836.514 399L836.514 397ZM860.356 397L872.277 397L872.277 399L860.356 399L860.356 397ZM884.198 397L896.119 397L896.119 399L884.198 399L884.198 397ZM908.04 397L914 397L914 399L908.04 399L908.04 397ZM915 398L915 404.167L913 404.167L913 398L915 398ZM915 416.5L915 428.833L913 428.833L913 416.5L915 416.5ZM915 441.167L915 453.5L913 453.5L913 441.167L915 441.167ZM915 465.833L915 472L913 472L913 465.833L915 465.833Z" fill="#96A2FF"/>
</svg>
