<svg width="213" height="229" viewBox="0 0 213 229" fill="none" xmlns="http://www.w3.org/2000/svg">
<g clip-path="url(#clip0_1494_11843)">
<path fill-rule="evenodd" clip-rule="evenodd" d="M170.974 33.1684L154.292 16.4859C132.311 -5.49529 96.6695 -5.49529 74.6885 16.4859L69.6788 21.4955L89.1378 40.9545L94.1475 35.9448C105.382 24.7107 123.599 24.7107 134.833 35.9448L151.515 52.6274L170.974 33.1684Z" fill="#F4A434"/>
<path fill-rule="evenodd" clip-rule="evenodd" d="M69.6796 21.4956L50.2649 40.9103L69.7239 60.3693L89.1386 40.9546L69.6796 21.4956Z" fill="#7EC1D9"/>
<path fill-rule="evenodd" clip-rule="evenodd" d="M16.5219 154.256L27.3172 165.052L46.7761 145.593L35.9809 134.797C24.7467 123.563 24.7467 105.346 35.9809 94.1117L69.7231 60.3694L50.2641 40.9104L16.5219 74.6527C-5.45927 96.6338 -5.45927 132.275 16.5219 154.256Z" fill="#1A1A1A"/>
<path fill-rule="evenodd" clip-rule="evenodd" d="M74.6886 212.424C96.6716 234.403 132.31 234.404 154.291 212.423L134.832 192.964C123.599 204.197 105.384 204.199 94.147 192.964C94.1468 192.964 94.1473 192.964 94.147 192.964L46.7757 145.593L27.3167 165.052L74.6886 212.424Z" fill="#7EC1D9"/>
<path fill-rule="evenodd" clip-rule="evenodd" d="M154.291 212.423L173.188 193.526L153.729 174.067L134.832 192.964L154.291 212.423Z" fill="#F4A434"/>
<path fill-rule="evenodd" clip-rule="evenodd" d="M196.609 94.3737C205.446 94.3737 212.607 87.2098 212.607 78.3753C212.607 70.9574 207.561 64.7201 200.714 62.9082L170.975 33.1692L151.516 52.6282L181.069 82.1809C182.776 89.1787 189.086 94.3737 196.609 94.3737Z" fill="#1A1A1A"/>
</g>
<defs>
<clipPath id="clip0_1494_11843">
<rect width="213" height="229" fill="white"/>
</clipPath>
</defs>
</svg>
