<svg width="230" height="46" viewBox="0 0 230 46" fill="none" xmlns="http://www.w3.org/2000/svg">
<path d="M72.5943 32.747H61.3141C61.0255 32.747 60.7128 32.715 60.3761 32.6508C60.0474 32.5787 59.7186 32.4704 59.3899 32.3261C59.0693 32.1818 58.7606 31.9974 58.464 31.773C58.1673 31.5405 57.9028 31.2639 57.6703 30.9432C57.4458 30.6145 57.2654 30.2377 57.1291 29.8127C56.9928 29.3798 56.9247 28.8948 56.9247 28.3576V19.8915C56.9247 19.6028 56.9567 19.2942 57.0209 18.9655C57.093 18.6287 57.2012 18.3 57.3456 17.9794C57.4899 17.6506 57.6783 17.338 57.9108 17.0413C58.1433 16.7447 58.4199 16.4841 58.7405 16.2597C59.0693 16.0272 59.4461 15.8428 59.871 15.7065C60.2959 15.5702 60.7769 15.502 61.3141 15.502H72.5943V18.6287H61.3141C60.9052 18.6287 60.5925 18.737 60.3761 18.9534C60.1596 19.1699 60.0514 19.4906 60.0514 19.9155V28.3576C60.0514 28.7585 60.1596 29.0712 60.3761 29.2956C60.6005 29.5121 60.9132 29.6203 61.3141 29.6203H72.5943V32.747Z" fill="#373535"/>
<path d="M93.3869 25.7721C93.3869 26.8223 93.2065 27.7884 92.8457 28.6703C92.4849 29.5522 91.9839 30.3138 91.3425 30.9552C90.7011 31.5966 89.9395 32.0976 89.0576 32.4584C88.1837 32.8112 87.2297 32.9876 86.1955 32.9876H81.9624C80.9282 32.9876 79.9701 32.8112 79.0882 32.4584C78.2063 32.0976 77.4447 31.5966 76.8033 30.9552C76.1619 30.3138 75.6568 29.5522 75.2881 28.6703C74.9273 27.7884 74.7469 26.8223 74.7469 25.7721V22.477C74.7469 21.4348 74.9273 20.4727 75.2881 19.5908C75.6568 18.7009 76.1619 17.9393 76.8033 17.3059C77.4447 16.6645 78.2063 16.1635 79.0882 15.8027C79.9701 15.4419 80.9282 15.2615 81.9624 15.2615H86.1955C87.2297 15.2615 88.1837 15.4419 89.0576 15.8027C89.9395 16.1635 90.7011 16.6645 91.3425 17.3059C91.9839 17.9393 92.4849 18.7009 92.8457 19.5908C93.2065 20.4727 93.3869 21.4348 93.3869 22.477V25.7721ZM90.2602 22.477C90.2602 21.8597 90.16 21.3025 89.9595 20.8054C89.7671 20.3003 89.4905 19.8714 89.1297 19.5187C88.777 19.1579 88.3481 18.8813 87.843 18.6889C87.3459 18.4884 86.7967 18.3882 86.1955 18.3882H81.9624C81.3531 18.3882 80.7959 18.4884 80.2908 18.6889C79.7937 18.8813 79.3648 19.1579 79.004 19.5187C78.6433 19.8714 78.3626 20.3003 78.1622 20.8054C77.9698 21.3025 77.8736 21.8597 77.8736 22.477V25.7721C77.8736 26.3894 77.9698 26.9506 78.1622 27.4557C78.3626 27.9528 78.6433 28.3817 79.004 28.7424C79.3648 29.0952 79.7937 29.3718 80.2908 29.5722C80.7959 29.7646 81.3531 29.8608 81.9624 29.8608H86.1714C86.7807 29.8608 87.3339 29.7646 87.831 29.5722C88.336 29.3718 88.769 29.0952 89.1297 28.7424C89.4905 28.3817 89.7671 27.9528 89.9595 27.4557C90.16 26.9506 90.2602 26.3894 90.2602 25.7721V22.477Z" fill="#373535"/>
<path d="M113.71 31.4122C113.71 31.6367 113.666 31.8451 113.578 32.0375C113.498 32.2299 113.386 32.3983 113.241 32.5426C113.105 32.6789 112.941 32.7871 112.748 32.8673C112.556 32.9475 112.352 32.9876 112.135 32.9876C111.943 32.9876 111.746 32.9515 111.546 32.8793C111.353 32.8072 111.181 32.6909 111.029 32.5306L99.6042 20.601V32.747H96.4775V16.8369C96.4775 16.5162 96.5657 16.2276 96.7421 15.971C96.9265 15.7065 97.159 15.5101 97.4396 15.3818C97.7362 15.2615 98.0409 15.2335 98.3535 15.2976C98.6662 15.3537 98.9348 15.498 99.1593 15.7305L110.584 27.6481V15.502H113.71V31.4122Z" fill="#373535"/>
<path d="M132.94 18.6287H126.049V32.747H122.922V18.6287H116.019V15.502H132.94V18.6287Z" fill="#373535"/>
<path d="M152.482 21.2985C152.482 22.012 152.393 22.6494 152.217 23.2106C152.041 23.7718 151.8 24.2688 151.496 24.7018C151.199 25.1267 150.854 25.4915 150.461 25.7961C150.069 26.1008 149.656 26.3533 149.223 26.5538C148.798 26.7462 148.365 26.8865 147.924 26.9747C147.491 27.0628 147.082 27.1069 146.697 27.1069L153.227 32.747H148.393L141.875 27.1069H139.626V23.9802H146.697C147.09 23.9482 147.447 23.868 147.768 23.7397C148.096 23.6034 148.377 23.423 148.609 23.1986C148.85 22.9741 149.034 22.7055 149.163 22.3928C149.291 22.0721 149.355 21.7074 149.355 21.2985V19.3262C149.355 19.1499 149.331 19.0176 149.283 18.9294C149.243 18.8332 149.187 18.765 149.114 18.725C149.05 18.6768 148.978 18.6488 148.898 18.6408C148.826 18.6328 148.758 18.6287 148.694 18.6287H138.375V32.747H135.249V17.0774C135.249 16.861 135.289 16.6565 135.369 16.4641C135.449 16.2717 135.557 16.1033 135.694 15.959C135.838 15.8147 136.006 15.7025 136.199 15.6223C136.391 15.5421 136.6 15.502 136.824 15.502H148.694C149.391 15.502 149.98 15.6303 150.461 15.8869C150.942 16.1354 151.331 16.4521 151.628 16.8369C151.933 17.2137 152.149 17.6226 152.277 18.0635C152.414 18.5045 152.482 18.9174 152.482 19.3022V21.2985Z" fill="#373535"/>
<path d="M173.719 25.7721C173.719 26.8223 173.539 27.7884 173.178 28.6703C172.817 29.5522 172.316 30.3138 171.675 30.9552C171.033 31.5966 170.272 32.0976 169.39 32.4584C168.516 32.8112 167.562 32.9876 166.528 32.9876H162.295C161.261 32.9876 160.302 32.8112 159.421 32.4584C158.539 32.0976 157.777 31.5966 157.136 30.9552C156.494 30.3138 155.989 29.5522 155.62 28.6703C155.26 27.7884 155.079 26.8223 155.079 25.7721V22.477C155.079 21.4348 155.26 20.4727 155.62 19.5908C155.989 18.7009 156.494 17.9393 157.136 17.3059C157.777 16.6645 158.539 16.1635 159.421 15.8027C160.302 15.4419 161.261 15.2615 162.295 15.2615H166.528C167.562 15.2615 168.516 15.4419 169.39 15.8027C170.272 16.1635 171.033 16.6645 171.675 17.3059C172.316 17.9393 172.817 18.7009 173.178 19.5908C173.539 20.4727 173.719 21.4348 173.719 22.477V25.7721ZM170.593 22.477C170.593 21.8597 170.492 21.3025 170.292 20.8054C170.099 20.3003 169.823 19.8714 169.462 19.5187C169.109 19.1579 168.68 18.8813 168.175 18.6889C167.678 18.4884 167.129 18.3882 166.528 18.3882H162.295C161.685 18.3882 161.128 18.4884 160.623 18.6889C160.126 18.8813 159.697 19.1579 159.336 19.5187C158.976 19.8714 158.695 20.3003 158.495 20.8054C158.302 21.3025 158.206 21.8597 158.206 22.477V25.7721C158.206 26.3894 158.302 26.9506 158.495 27.4557C158.695 27.9528 158.976 28.3817 159.336 28.7424C159.697 29.0952 160.126 29.3718 160.623 29.5722C161.128 29.7646 161.685 29.8608 162.295 29.8608H166.504C167.113 29.8608 167.666 29.7646 168.163 29.5722C168.668 29.3718 169.101 29.0952 169.462 28.7424C169.823 28.3817 170.099 27.9528 170.292 27.4557C170.492 26.9506 170.593 26.3894 170.593 25.7721V22.477Z" fill="#373535"/>
<path d="M192.648 32.747H178.385C178.161 32.747 177.952 32.707 177.76 32.6268C177.567 32.5466 177.399 32.4384 177.255 32.3021C177.119 32.1578 177.01 31.9894 176.93 31.797C176.85 31.6046 176.81 31.3961 176.81 31.1717V15.502H179.937V29.6203H192.648V32.747Z" fill="#373535"/>
<path d="M210.783 32.747H196.52C196.296 32.747 196.087 32.707 195.895 32.6268C195.702 32.5466 195.534 32.4384 195.39 32.3021C195.253 32.1578 195.145 31.9894 195.065 31.797C194.985 31.6046 194.945 31.3961 194.945 31.1717V15.502H198.071V29.6203H210.783V32.747Z" fill="#373535"/>
<path d="M230 32.747H226.873V28.514H215.882V32.747H212.755V24.1245C212.755 22.8658 212.971 21.7074 213.404 20.6491C213.837 19.5908 214.439 18.6809 215.208 17.9192C215.978 17.1576 216.888 16.5643 217.938 16.1394C218.988 15.7145 220.135 15.502 221.378 15.502H228.425C228.641 15.502 228.846 15.5421 229.038 15.6223C229.23 15.7025 229.399 15.8147 229.543 15.959C229.687 16.1033 229.8 16.2717 229.88 16.4641C229.96 16.6565 230 16.861 230 17.0774V32.747ZM215.882 25.3872H226.873V18.6287H221.378C221.281 18.6287 221.077 18.6448 220.764 18.6768C220.46 18.7009 220.103 18.769 219.694 18.8813C219.293 18.9935 218.868 19.1659 218.419 19.3984C217.97 19.6309 217.557 19.9516 217.18 20.3605C216.804 20.7693 216.491 21.2824 216.242 21.8998C216.002 22.5091 215.882 23.2507 215.882 24.1245V25.3872Z" fill="#373535"/>
<path fill-rule="evenodd" clip-rule="evenodd" d="M34.1614 6.62861L30.8274 3.29464C26.4346 -1.09821 19.3118 -1.09821 14.9189 3.29464L13.9178 4.2958L17.8066 8.18462L18.8078 7.18346C21.0529 4.93835 24.6935 4.93835 26.9386 7.18346L30.2726 10.5174L34.1614 6.62861Z" fill="#F4A434"/>
<path fill-rule="evenodd" clip-rule="evenodd" d="M13.9179 4.29568L10.0379 8.17564L13.9268 12.0645L17.8067 8.18449L13.9179 4.29568Z" fill="#7EC1D9"/>
<path fill-rule="evenodd" clip-rule="evenodd" d="M3.29464 30.8276L5.45205 32.985L9.34087 29.0962L7.18346 26.9388C4.93834 24.6937 4.93834 21.0531 7.18346 18.808L13.9268 12.0646L10.0379 8.17583L3.29464 14.9191C-1.09821 19.312 -1.09821 26.4348 3.29464 30.8276Z" fill="#373535"/>
<path fill-rule="evenodd" clip-rule="evenodd" d="M14.919 42.4521C19.3122 46.8447 26.4344 46.8449 30.8273 42.452L26.9385 38.5632C24.6935 40.8082 21.0534 40.8084 18.8077 38.5632C18.8076 38.5631 18.8077 38.5632 18.8077 38.5632L9.34068 29.0962L5.45187 32.985L14.919 42.4521Z" fill="#7EC1D9"/>
<path fill-rule="evenodd" clip-rule="evenodd" d="M30.8273 42.452L34.6038 38.6754L30.715 34.7866L26.9385 38.5631L30.8273 42.452Z" fill="#F4A434"/>
<path fill-rule="evenodd" clip-rule="evenodd" d="M39.2844 18.8603C41.0505 18.8603 42.4817 17.4286 42.4817 15.663C42.4817 14.1806 41.4732 12.9341 40.1048 12.572L34.1615 6.62874L30.2727 10.5176L36.1787 16.4236C36.5199 17.8221 37.7809 18.8603 39.2844 18.8603Z" fill="#373535"/>
</svg>
