<?xml version="1.0" standalone="no"?>
<!DOCTYPE svg PUBLIC "-//W3C//DTD SVG 20010904//EN"
 "http://www.w3.org/TR/2001/REC-SVG-20010904/DTD/svg10.dtd">
<svg version="1.0" xmlns="http://www.w3.org/2000/svg"
 width="688.000000pt" height="688.000000pt" viewBox="0 0 688.000000 688.000000"
 preserveAspectRatio="xMidYMid meet">
<metadata>
Created by potrace 1.14, written by Peter Selinger 2001-2017
</metadata>
<g transform="translate(0.000000,688.000000) scale(0.100000,-0.100000)"
fill="#000000" stroke="none">
<path d="M3514 6869 c-3 -5 -10 -7 -15 -3 -5 3 -33 1 -62 -5 -28 -6 -66 -13
-82 -16 -56 -9 -229 -62 -304 -94 -131 -55 -297 -155 -411 -246 -58 -46 -1916
-1911 -1957 -1963 -65 -84 -112 -154 -144 -212 -13 -25 -28 -48 -32 -51 -5 -3
-8 -9 -8 -12 0 -4 -15 -41 -34 -82 -19 -41 -35 -81 -35 -88 0 -7 -7 -23 -16
-35 -8 -12 -13 -22 -10 -22 3 0 -1 -18 -9 -40 -8 -22 -12 -40 -8 -40 3 0 1 -6
-5 -12 -11 -15 -23 -67 -37 -158 -3 -20 -8 -47 -11 -60 -2 -14 -7 -65 -9 -115
-2 -49 -5 -92 -6 -95 -1 -3 -1 -8 0 -12 0 -4 3 -50 6 -102 3 -53 8 -112 11
-133 4 -21 8 -45 9 -53 6 -46 18 -100 31 -141 8 -25 16 -54 18 -65 11 -55 131
-325 148 -332 5 -2 8 -8 8 -13 0 -15 90 -145 151 -219 90 -110 1899 -1911
1979 -1971 74 -55 223 -154 228 -150 1 0 34 -15 72 -34 39 -19 70 -32 70 -28
0 5 4 3 8 -2 4 -6 43 -23 87 -39 90 -31 85 -30 140 -41 22 -4 44 -10 49 -13 5
-3 21 -6 35 -8 14 -1 36 -5 49 -8 85 -19 339 -26 457 -13 83 9 170 26 234 44
29 8 59 16 65 18 12 2 13 3 121 42 65 24 274 127 285 142 3 3 12 11 21 16 54
34 96 64 108 79 7 9 17 16 22 16 8 0 99 80 123 108 6 7 19 21 29 30 23 21 435
432 496 495 l44 45 -287 286 -287 286 -292 -293 c-161 -160 -312 -308 -337
-328 -72 -58 -202 -127 -270 -145 -187 -47 -336 -50 -478 -8 -32 9 -61 17 -67
18 -23 4 -154 72 -200 105 -27 19 -369 352 -758 740 -390 388 -714 711 -720
718 -198 196 -404 412 -438 459 -37 51 -73 118 -110 209 -30 73 -43 161 -43
280 0 115 9 175 38 270 13 43 66 156 77 165 3 3 12 16 19 29 7 14 17 30 22 35
4 6 17 22 28 36 33 41 1770 1778 1830 1829 44 39 170 121 184 121 2 0 21 8 42
17 38 16 44 18 82 27 9 3 17 5 17 6 0 1 7 3 15 5 8 2 29 6 45 10 48 11 238 14
286 4 65 -12 88 -18 112 -24 40 -11 152 -59 177 -75 14 -9 45 -30 70 -46 65
-41 1467 -1441 1481 -1479 58 -157 151 -250 314 -317 29 -11 102 -20 155 -18
171 5 331 110 405 264 18 39 36 87 40 106 9 47 9 146 0 195 -10 59 -68 174
-112 221 -45 49 -152 120 -194 129 -22 5 -213 189 -752 728 -398 397 -740 736
-761 752 -21 17 -44 35 -50 41 -51 48 -267 173 -371 214 -33 13 -64 28 -69 32
-6 4 -18 8 -28 8 -10 0 -26 4 -36 9 -9 5 -35 14 -57 19 -22 6 -58 15 -80 21
-22 5 -62 13 -90 17 -27 3 -59 9 -70 11 -38 10 -385 11 -391 2z"/>
</g>
</svg>
