<?xml version="1.0" standalone="no"?>
<!DOCTYPE svg PUBLIC "-//W3C//DTD SVG 20010904//EN"
 "http://www.w3.org/TR/2001/REC-SVG-20010904/DTD/svg10.dtd">
<svg version="1.0" xmlns="http://www.w3.org/2000/svg"
 width="916.000000pt" height="916.000000pt" viewBox="0 0 916.000000 916.000000"
 preserveAspectRatio="xMidYMid meet">
<metadata>
Created by potrace 1.14, written by Peter Selinger 2001-2017
</metadata>
<g transform="translate(0.000000,916.000000) scale(0.100000,-0.100000)"
fill="#000000" stroke="none">
<path d="M4680 9150 c-25 -4 -48 -6 -52 -3 -5 2 -13 1 -20 -3 -7 -4 -26 -9
-43 -10 -16 -1 -30 -2 -30 -3 0 -1 -11 -4 -25 -6 -53 -8 -207 -44 -260 -61
-30 -10 -60 -18 -67 -20 -58 -11 -304 -124 -418 -191 -114 -67 -256 -167 -263
-185 -2 -4 -7 -8 -12 -8 -4 0 -23 -12 -41 -27 -56 -47 -2563 -2555 -2599
-2602 -19 -24 -39 -48 -45 -55 -45 -50 -235 -343 -235 -361 0 -3 -15 -38 -34
-77 -19 -40 -42 -90 -51 -112 -20 -44 -83 -236 -89 -269 -3 -12 -5 -22 -6 -22
-1 0 -3 -7 -5 -15 -1 -8 -10 -49 -18 -90 -31 -145 -42 -263 -41 -455 0 -145 6
-246 18 -315 3 -14 7 -41 10 -60 11 -69 17 -96 42 -190 14 -52 27 -102 29
-110 26 -102 167 -405 239 -513 26 -37 46 -71 46 -76 0 -5 3 -11 8 -13 4 -1
27 -30 52 -63 24 -33 49 -65 55 -71 5 -6 30 -35 55 -65 41 -49 2412 -2423
2511 -2514 24 -23 64 -56 89 -75 24 -19 53 -42 63 -52 32 -28 189 -131 252
-165 68 -37 225 -114 240 -117 6 -1 28 -10 50 -20 85 -37 339 -107 440 -122
17 -2 44 -6 60 -9 126 -19 377 -25 515 -11 160 15 183 19 365 62 11 3 29 7 41
9 12 3 41 12 65 21 24 8 51 17 59 19 21 4 169 64 194 78 12 6 27 12 35 13 8 2
18 9 22 16 5 7 9 9 9 5 0 -14 261 137 268 155 2 4 10 8 18 8 8 0 14 5 14 10 0
6 7 10 15 10 8 0 15 4 15 8 0 4 12 15 28 24 15 9 39 27 54 40 14 13 52 46 84
73 31 28 238 231 459 452 l402 402 -389 389 -389 389 -398 -396 c-419 -418
-474 -471 -488 -471 -4 0 -21 -11 -37 -25 -64 -55 -281 -151 -385 -170 -14 -3
-37 -7 -51 -11 -100 -23 -308 -23 -425 0 -34 7 -108 27 -155 42 -58 20 -160
64 -170 74 -3 3 -25 16 -50 29 -25 13 -70 42 -100 64 -64 48 -2492 2472 -2536
2532 -16 22 -32 42 -35 45 -24 19 -156 270 -142 270 3 0 0 7 -7 15 -7 8 -9 15
-5 15 4 0 3 6 -2 13 -9 10 -18 42 -39 137 -25 112 -24 308 2 460 25 146 155
410 253 512 49 50 2191 2193 2316 2317 150 147 220 205 306 253 25 14 54 31
65 36 56 32 224 89 281 97 15 2 28 4 28 5 0 13 297 19 375 7 59 -8 169 -35
184 -44 6 -4 19 -9 29 -10 30 -5 159 -67 220 -106 32 -21 60 -37 62 -37 3 0
13 -8 23 -17 10 -10 32 -29 48 -42 59 -48 161 -150 156 -156 -3 -3 -1 -5 5 -5
6 0 50 -41 99 -91 49 -51 97 -99 107 -108 31 -27 97 -93 105 -105 4 -6 44 -46
88 -88 45 -43 79 -80 76 -83 -3 -3 -1 -5 5 -5 5 0 194 -185 419 -411 225 -226
417 -419 427 -428 26 -23 86 -82 128 -127 20 -22 69 -70 108 -108 39 -38 71
-73 71 -79 0 -6 2 -8 5 -5 5 4 56 -44 121 -115 6 -7 14 -26 18 -42 9 -34 55
-137 65 -145 3 -3 18 -23 33 -45 34 -50 98 -111 158 -151 40 -27 66 -40 145
-74 19 -8 46 -15 105 -27 33 -7 179 -7 210 0 158 36 249 84 345 181 73 75 125
150 125 182 0 8 4 14 9 14 7 0 17 30 38 110 4 17 12 78 17 126 5 49 -13 164
-36 228 -61 174 -211 329 -376 388 -63 23 -73 33 -1025 984 -529 529 -998 991
-1042 1028 -44 36 -93 77 -110 91 -16 13 -36 25 -42 25 -7 0 -13 5 -13 10 0 6
-5 10 -11 10 -6 0 -17 6 -24 13 -32 28 -45 37 -52 37 -5 0 -24 11 -43 23 -19
13 -75 44 -125 69 -83 42 -115 57 -200 93 -30 13 -191 67 -210 71 -5 1 -30 7
-55 13 -97 24 -171 39 -230 46 -25 3 -56 8 -70 11 -37 9 -428 12 -480 4z"/>
</g>
</svg>
