<svg width="541" height="333" viewBox="0 0 541 333" fill="none" xmlns="http://www.w3.org/2000/svg">
<path d="M8 75V74H7V75H8ZM533 75V76H534V75H533ZM533.707 0.292893C533.317 -0.0976311 532.683 -0.0976311 532.293 0.292893L525.929 6.65685C525.538 7.04738 525.538 7.68054 525.929 8.07107C526.319 8.46159 526.953 8.46159 527.343 8.07107L533 2.41421L538.657 8.07107C539.047 8.46159 539.681 8.46159 540.071 8.07107C540.462 7.68054 540.462 7.04738 540.071 6.65685L533.707 0.292893ZM7.29289 332.707C7.68342 333.098 8.31658 333.098 8.70711 332.707L15.0711 326.343C15.4616 325.953 15.4616 325.319 15.0711 324.929C14.6805 324.538 14.0474 324.538 13.6569 324.929L8 330.586L2.34315 324.929C1.95262 324.538 1.31946 324.538 0.928932 324.929C0.538408 325.319 0.538408 325.953 0.928932 326.343L7.29289 332.707ZM9 326.159C9 325.607 8.55228 325.159 8 325.159C7.44772 325.159 7 325.607 7 326.159H9ZM7 314.477C7 315.03 7.44772 315.477 8 315.477C8.55228 315.477 9 315.03 9 314.477H7ZM9 302.795C9 302.243 8.55228 301.795 8 301.795C7.44772 301.795 7 302.243 7 302.795H9ZM7 291.114C7 291.666 7.44772 292.114 8 292.114C8.55228 292.114 9 291.666 9 291.114H7ZM9 279.432C9 278.88 8.55228 278.432 8 278.432C7.44772 278.432 7 278.88 7 279.432H9ZM7 267.75C7 268.302 7.44772 268.75 8 268.75C8.55228 268.75 9 268.302 9 267.75H7ZM9 256.068C9 255.516 8.55228 255.068 8 255.068C7.44772 255.068 7 255.516 7 256.068H9ZM7 244.386C7 244.939 7.44772 245.386 8 245.386C8.55228 245.386 9 244.939 9 244.386H7ZM9 232.705C9 232.152 8.55228 231.705 8 231.705C7.44772 231.705 7 232.152 7 232.705H9ZM7 221.023C7 221.575 7.44772 222.023 8 222.023C8.55228 222.023 9 221.575 9 221.023H7ZM9 209.341C9 208.789 8.55228 208.341 8 208.341C7.44772 208.341 7 208.789 7 209.341H9ZM7 197.659C7 198.211 7.44772 198.659 8 198.659C8.55228 198.659 9 198.211 9 197.659H7ZM9 185.977C9 185.425 8.55228 184.977 8 184.977C7.44772 184.977 7 185.425 7 185.977H9ZM7 174.295C7 174.848 7.44772 175.295 8 175.295C8.55228 175.295 9 174.848 9 174.295H7ZM9 162.614C9 162.061 8.55228 161.614 8 161.614C7.44772 161.614 7 162.061 7 162.614H9ZM7 150.932C7 151.484 7.44772 151.932 8 151.932C8.55228 151.932 9 151.484 9 150.932H7ZM9 139.25C9 138.698 8.55228 138.25 8 138.25C7.44772 138.25 7 138.698 7 139.25H9ZM7 127.568C7 128.12 7.44772 128.568 8 128.568C8.55228 128.568 9 128.12 9 127.568H7ZM9 115.886C9 115.334 8.55228 114.886 8 114.886C7.44772 114.886 7 115.334 7 115.886H9ZM7 104.205C7 104.757 7.44772 105.205 8 105.205C8.55228 105.205 9 104.757 9 104.205H7ZM9 92.5227C9 91.9704 8.55228 91.5227 8 91.5227C7.44772 91.5227 7 91.9704 7 92.5227H9ZM7 80.8409C7 81.3932 7.44772 81.8409 8 81.8409C8.55228 81.8409 9 81.3932 9 80.8409H7ZM13.9659 76C14.5182 76 14.9659 75.5523 14.9659 75C14.9659 74.4477 14.5182 74 13.9659 74V76ZM25.8977 74C25.3454 74 24.8977 74.4477 24.8977 75C24.8977 75.5523 25.3454 76 25.8977 76V74ZM37.8295 76C38.3818 76 38.8295 75.5523 38.8295 75C38.8295 74.4477 38.3818 74 37.8295 74V76ZM49.7614 74C49.2091 74 48.7614 74.4477 48.7614 75C48.7614 75.5523 49.2091 76 49.7614 76V74ZM61.6932 76C62.2455 76 62.6932 75.5523 62.6932 75C62.6932 74.4477 62.2455 74 61.6932 74V76ZM73.625 74C73.0727 74 72.625 74.4477 72.625 75C72.625 75.5523 73.0727 76 73.625 76V74ZM85.5568 76C86.1091 76 86.5568 75.5523 86.5568 75C86.5568 74.4477 86.1091 74 85.5568 74V76ZM97.4886 74C96.9363 74 96.4886 74.4477 96.4886 75C96.4886 75.5523 96.9363 76 97.4886 76V74ZM109.42 76C109.973 76 110.42 75.5523 110.42 75C110.42 74.4477 109.973 74 109.42 74V76ZM121.352 74C120.8 74 120.352 74.4477 120.352 75C120.352 75.5523 120.8 76 121.352 76V74ZM133.284 76C133.836 76 134.284 75.5523 134.284 75C134.284 74.4477 133.836 74 133.284 74V76ZM145.216 74C144.664 74 144.216 74.4477 144.216 75C144.216 75.5523 144.664 76 145.216 76V74ZM157.148 76C157.7 76 158.148 75.5523 158.148 75C158.148 74.4477 157.7 74 157.148 74V76ZM169.08 74C168.527 74 168.08 74.4477 168.08 75C168.08 75.5523 168.527 76 169.08 76V74ZM181.011 76C181.564 76 182.011 75.5523 182.011 75C182.011 74.4477 181.564 74 181.011 74V76ZM192.943 74C192.391 74 191.943 74.4477 191.943 75C191.943 75.5523 192.391 76 192.943 76V74ZM204.875 76C205.427 76 205.875 75.5523 205.875 75C205.875 74.4477 205.427 74 204.875 74V76ZM216.807 74C216.255 74 215.807 74.4477 215.807 75C215.807 75.5523 216.255 76 216.807 76V74ZM228.739 76C229.291 76 229.739 75.5523 229.739 75C229.739 74.4477 229.291 74 228.739 74V76ZM240.67 74C240.118 74 239.67 74.4477 239.67 75C239.67 75.5523 240.118 76 240.67 76V74ZM252.602 76C253.155 76 253.602 75.5523 253.602 75C253.602 74.4477 253.155 74 252.602 74V76ZM264.534 74C263.982 74 263.534 74.4477 263.534 75C263.534 75.5523 263.982 76 264.534 76V74ZM276.466 76C277.018 76 277.466 75.5523 277.466 75C277.466 74.4477 277.018 74 276.466 74V76ZM288.398 74C287.845 74 287.398 74.4477 287.398 75C287.398 75.5523 287.845 76 288.398 76V74ZM300.33 76C300.882 76 301.33 75.5523 301.33 75C301.33 74.4477 300.882 74 300.33 74V76ZM312.261 74C311.709 74 311.261 74.4477 311.261 75C311.261 75.5523 311.709 76 312.261 76V74ZM324.193 76C324.746 76 325.193 75.5523 325.193 75C325.193 74.4477 324.746 74 324.193 74V76ZM336.125 74C335.573 74 335.125 74.4477 335.125 75C335.125 75.5523 335.573 76 336.125 76V74ZM348.057 76C348.609 76 349.057 75.5523 349.057 75C349.057 74.4477 348.609 74 348.057 74V76ZM359.989 74C359.436 74 358.989 74.4477 358.989 75C358.989 75.5523 359.436 76 359.989 76V74ZM371.921 76C372.473 76 372.921 75.5523 372.921 75C372.921 74.4477 372.473 74 371.921 74V76ZM383.852 74C383.3 74 382.852 74.4477 382.852 75C382.852 75.5523 383.3 76 383.852 76V74ZM395.784 76C396.336 76 396.784 75.5523 396.784 75C396.784 74.4477 396.336 74 395.784 74V76ZM407.716 74C407.164 74 406.716 74.4477 406.716 75C406.716 75.5523 407.164 76 407.716 76V74ZM419.648 76C420.2 76 420.648 75.5523 420.648 75C420.648 74.4477 420.2 74 419.648 74V76ZM431.58 74C431.027 74 430.58 74.4477 430.58 75C430.58 75.5523 431.027 76 431.58 76V74ZM443.511 76C444.064 76 444.511 75.5523 444.511 75C444.511 74.4477 444.064 74 443.511 74V76ZM455.443 74C454.891 74 454.443 74.4477 454.443 75C454.443 75.5523 454.891 76 455.443 76V74ZM467.375 76C467.927 76 468.375 75.5523 468.375 75C468.375 74.4477 467.927 74 467.375 74V76ZM479.307 74C478.755 74 478.307 74.4477 478.307 75C478.307 75.5523 478.755 76 479.307 76V74ZM491.239 76C491.791 76 492.239 75.5523 492.239 75C492.239 74.4477 491.791 74 491.239 74V76ZM503.171 74C502.618 74 502.171 74.4477 502.171 75C502.171 75.5523 502.618 76 503.171 76V74ZM515.102 76C515.655 76 516.102 75.5523 516.102 75C516.102 74.4477 515.655 74 515.102 74V76ZM527.034 74C526.482 74 526.034 74.4477 526.034 75C526.034 75.5523 526.482 76 527.034 76V74ZM534 68.8333C534 68.2811 533.552 67.8333 533 67.8333C532.448 67.8333 532 68.2811 532 68.8333H534ZM532 56.5C532 57.0523 532.448 57.5 533 57.5C533.552 57.5 534 57.0523 534 56.5H532ZM534 44.1667C534 43.6144 533.552 43.1667 533 43.1667C532.448 43.1667 532 43.6144 532 44.1667H534ZM532 31.8333C532 32.3856 532.448 32.8333 533 32.8333C533.552 32.8333 534 32.3856 534 31.8333H532ZM534 19.5C534 18.9477 533.552 18.5 533 18.5C532.448 18.5 532 18.9477 532 19.5H534ZM532 7.16667C532 7.71895 532.448 8.16667 533 8.16667C533.552 8.16667 534 7.71895 534 7.16667H532ZM9 332V326.159H7V332H9ZM9 314.477V302.795H7V314.477H9ZM9 291.114V279.432H7V291.114H9ZM9 267.75V256.068H7V267.75H9ZM9 244.386V232.705H7V244.386H9ZM9 221.023V209.341H7V221.023H9ZM9 197.659V185.977H7V197.659H9ZM9 174.295V162.614H7V174.295H9ZM9 150.932V139.25H7V150.932H9ZM9 127.568V115.886H7V127.568H9ZM9 104.205V92.5227H7V104.205H9ZM9 80.8409V75H7V80.8409H9ZM8 76H13.9659V74H8V76ZM25.8977 76H37.8295V74H25.8977V76ZM49.7614 76H61.6932V74H49.7614V76ZM73.625 76H85.5568V74H73.625V76ZM97.4886 76H109.42V74H97.4886V76ZM121.352 76H133.284V74H121.352V76ZM145.216 76H157.148V74H145.216V76ZM169.08 76H181.011V74H169.08V76ZM192.943 76H204.875V74H192.943V76ZM216.807 76H228.739V74H216.807V76ZM240.67 76H252.602V74H240.67V76ZM264.534 76H276.466V74H264.534V76ZM288.398 76H300.33V74H288.398V76ZM312.261 76H324.193V74H312.261V76ZM336.125 76H348.057V74H336.125V76ZM359.989 76H371.921V74H359.989V76ZM383.852 76H395.784V74H383.852V76ZM407.716 76H419.648V74H407.716V76ZM431.58 76H443.511V74H431.58V76ZM455.443 76H467.375V74H455.443V76ZM479.307 76H491.239V74H479.307V76ZM503.171 76H515.102V74H503.171V76ZM527.034 76H533V74H527.034V76ZM534 75V68.8333H532V75H534ZM534 56.5V44.1667H532V56.5H534ZM534 31.8333V19.5H532V31.8333H534ZM534 7.16667V1H532V7.16667H534Z" fill="#96A2FF"/>
</svg>
