<svg width="174" height="145" viewBox="0 0 174 145" fill="none" xmlns="http://www.w3.org/2000/svg">
<path d="M166 121.533L166 122.533L167 122.533L167 121.533L166 121.533ZM8.00001 121.533L8.00001 120.533L7.00001 120.533L7.00001 121.533L8.00001 121.533ZM7.29291 144.707C7.68343 145.098 8.3166 145.098 8.70712 144.707L15.0711 138.343C15.4616 137.953 15.4616 137.319 15.0711 136.929C14.6806 136.538 14.0474 136.538 13.6569 136.929L8.00002 142.586L2.34316 136.929C1.95264 136.538 1.31947 136.538 0.928947 136.929C0.538423 137.319 0.538423 137.953 0.928947 138.343L7.29291 144.707ZM166.707 0.292878C166.317 -0.0976464 165.683 -0.0976463 165.293 0.292878L158.929 6.65684C158.538 7.04736 158.538 7.68053 158.929 8.07105C159.319 8.46158 159.953 8.46158 160.343 8.07105L166 2.4142L171.657 8.07105C172.047 8.46158 172.681 8.46158 173.071 8.07105C173.462 7.68053 173.462 7.04736 173.071 6.65684L166.707 0.292878ZM165 7.02663C165 7.57892 165.448 8.02663 166 8.02663C166.552 8.02663 167 7.57892 167 7.02663L165 7.02663ZM167 19.0799C167 18.5276 166.552 18.0799 166 18.0799C165.448 18.0799 165 18.5276 165 19.0799L167 19.0799ZM165 31.1332C165 31.6855 165.448 32.1332 166 32.1332C166.552 32.1332 167 31.6855 167 31.1332L165 31.1332ZM167 43.1865C167 42.6342 166.552 42.1865 166 42.1865C165.448 42.1865 165 42.6342 165 43.1865L167 43.1865ZM165 55.2398C165 55.7921 165.448 56.2398 166 56.2398C166.552 56.2398 167 55.7921 167 55.2398L165 55.2398ZM167 67.2931C167 66.7408 166.552 66.2931 166 66.2931C165.448 66.2931 165 66.7408 165 67.2931L167 67.2931ZM165 79.3464C165 79.8987 165.448 80.3464 166 80.3464C166.552 80.3464 167 79.8987 167 79.3464L165 79.3464ZM167 91.3997C167 90.8474 166.552 90.3997 166 90.3997C165.448 90.3997 165 90.8474 165 91.3997L167 91.3997ZM165 103.453C165 104.005 165.448 104.453 166 104.453C166.552 104.453 167 104.005 167 103.453L165 103.453ZM167 115.506C167 114.954 166.552 114.506 166 114.506C165.448 114.506 165 114.954 165 115.506L167 115.506ZM160.357 120.533C159.805 120.533 159.357 120.981 159.357 121.533C159.357 122.085 159.805 122.533 160.357 122.533L160.357 120.533ZM149.071 122.533C149.624 122.533 150.071 122.085 150.071 121.533C150.071 120.981 149.624 120.533 149.071 120.533L149.071 122.533ZM137.786 120.533C137.233 120.533 136.786 120.981 136.786 121.533C136.786 122.085 137.233 122.533 137.786 122.533L137.786 120.533ZM126.5 122.533C127.052 122.533 127.5 122.085 127.5 121.533C127.5 120.981 127.052 120.533 126.5 120.533L126.5 122.533ZM115.214 120.533C114.662 120.533 114.214 120.981 114.214 121.533C114.214 122.085 114.662 122.533 115.214 122.533L115.214 120.533ZM103.929 122.533C104.481 122.533 104.929 122.085 104.929 121.533C104.929 120.981 104.481 120.533 103.929 120.533L103.929 122.533ZM92.6429 120.533C92.0906 120.533 91.6429 120.981 91.6429 121.533C91.6429 122.085 92.0906 122.533 92.6429 122.533L92.6429 120.533ZM81.3572 122.533C81.9094 122.533 82.3572 122.085 82.3572 121.533C82.3572 120.981 81.9094 120.533 81.3572 120.533L81.3572 122.533ZM70.0714 120.533C69.5192 120.533 69.0714 120.981 69.0714 121.533C69.0714 122.085 69.5192 122.533 70.0714 122.533L70.0714 120.533ZM58.7857 122.533C59.338 122.533 59.7857 122.085 59.7857 121.533C59.7857 120.981 59.338 120.533 58.7857 120.533L58.7857 122.533ZM47.5 120.533C46.9477 120.533 46.5 120.981 46.5 121.533C46.5 122.085 46.9477 122.533 47.5 122.533L47.5 120.533ZM36.2143 122.533C36.7666 122.533 37.2143 122.085 37.2143 121.533C37.2143 120.981 36.7666 120.533 36.2143 120.533L36.2143 122.533ZM24.9286 120.533C24.3763 120.533 23.9286 120.981 23.9286 121.533C23.9286 122.085 24.3763 122.533 24.9286 122.533L24.9286 120.533ZM13.6429 122.533C14.1952 122.533 14.6429 122.085 14.6429 121.533C14.6429 120.981 14.1952 120.533 13.6429 120.533L13.6429 122.533ZM7.00001 127.15C7.00001 127.702 7.44773 128.15 8.00001 128.15C8.5523 128.15 9.00001 127.702 9.00001 127.15L7.00001 127.15ZM9.00001 138.383C9.00001 137.831 8.5523 137.383 8.00001 137.383C7.44773 137.383 7.00001 137.831 7.00001 138.383L9.00001 138.383ZM165 0.999985L165 7.02663L167 7.02663L167 0.999985L165 0.999985ZM165 19.0799L165 31.1332L167 31.1332L167 19.0799L165 19.0799ZM165 43.1865L165 55.2398L167 55.2398L167 43.1865L165 43.1865ZM165 67.2931L165 79.3464L167 79.3464L167 67.2931L165 67.2931ZM165 91.3997L165 103.453L167 103.453L167 91.3997L165 91.3997ZM165 115.506L165 121.533L167 121.533L167 115.506L165 115.506ZM166 120.533L160.357 120.533L160.357 122.533L166 122.533L166 120.533ZM149.071 120.533L137.786 120.533L137.786 122.533L149.071 122.533L149.071 120.533ZM126.5 120.533L115.214 120.533L115.214 122.533L126.5 122.533L126.5 120.533ZM103.929 120.533L92.6429 120.533L92.6429 122.533L103.929 122.533L103.929 120.533ZM81.3572 120.533L70.0714 120.533L70.0714 122.533L81.3572 122.533L81.3572 120.533ZM58.7857 120.533L47.5 120.533L47.5 122.533L58.7857 122.533L58.7857 120.533ZM36.2143 120.533L24.9286 120.533L24.9286 122.533L36.2143 122.533L36.2143 120.533ZM13.6429 120.533L8.00001 120.533L8.00001 122.533L13.6429 122.533L13.6429 120.533ZM7.00001 121.533L7.00001 127.15L9.00001 127.15L9.00001 121.533L7.00001 121.533ZM7.00001 138.383L7.00002 144L9.00002 144L9.00001 138.383L7.00001 138.383Z" fill="#96A2FF"/>
</svg>
