<svg width="40" height="234" viewBox="0 0 40 234" fill="none" xmlns="http://www.w3.org/2000/svg">
<path d="M7.29291 0.29332C7.68344 -0.0971985 8.3166 -0.0971985 8.70713 0.29332L15.0711 6.65729C15.4616 7.04781 15.4616 7.68097 15.0711 8.07149C14.6806 8.46202 14.0474 8.46202 13.6569 8.07149L8.00002 2.41464L2.34317 8.0715C1.95264 8.46202 1.31948 8.46202 0.928952 8.0715C0.538427 7.68097 0.538427 7.04781 0.928952 6.65729L7.29291 0.29332ZM8.00002 226L8.00002 227L7.00002 227L7.00002 226L8.00002 226ZM39.0343 225.293C39.4248 225.683 39.4248 226.317 39.0343 226.707L32.6703 233.071C32.2798 233.462 31.6466 233.462 31.2561 233.071C30.8656 232.681 30.8656 232.047 31.2561 231.657L36.9129 226L31.2561 220.343C30.8656 219.953 30.8656 219.319 31.2561 218.929C31.6466 218.538 32.2798 218.538 32.6703 218.929L39.0343 225.293ZM9.00002 7.25041C9.00002 7.8027 8.5523 8.25041 8.00002 8.25041C7.44773 8.25041 7.00002 7.8027 7.00002 7.25041L9.00002 7.25041ZM7.00002 19.7504C7.00002 19.1981 7.44773 18.7504 8.00002 18.7504C8.5523 18.7504 9.00002 19.1981 9.00002 19.7504L7.00002 19.7504ZM9.00002 32.2504C9.00002 32.8027 8.5523 33.2504 8.00002 33.2504C7.44773 33.2504 7.00002 32.8027 7.00002 32.2504L9.00002 32.2504ZM7.00002 44.7504C7.00002 44.1981 7.44773 43.7504 8.00002 43.7504C8.5523 43.7504 9.00002 44.1981 9.00002 44.7504L7.00002 44.7504ZM9.00002 57.2503C9.00002 57.8026 8.5523 58.2503 8.00002 58.2503C7.44773 58.2503 7.00002 57.8026 7.00002 57.2503L9.00002 57.2503ZM7.00002 69.7503C7.00002 69.198 7.44773 68.7503 8.00002 68.7503C8.5523 68.7503 9.00002 69.198 9.00002 69.7503L7.00002 69.7503ZM9.00002 82.2503C9.00002 82.8026 8.5523 83.2503 8.00002 83.2503C7.44773 83.2503 7.00002 82.8026 7.00002 82.2503L9.00002 82.2503ZM7.00002 94.7503C7.00002 94.198 7.44773 93.7503 8.00002 93.7503C8.5523 93.7503 9.00002 94.198 9.00002 94.7503L7.00002 94.7503ZM9.00002 107.25C9.00002 107.803 8.5523 108.25 8.00002 108.25C7.44773 108.25 7.00002 107.803 7.00002 107.25L9.00002 107.25ZM7.00002 119.75C7.00002 119.198 7.44773 118.75 8.00002 118.75C8.5523 118.75 9.00002 119.198 9.00002 119.75L7.00002 119.75ZM9.00002 132.25C9.00002 132.802 8.5523 133.25 8.00002 133.25C7.44773 133.25 7.00002 132.802 7.00002 132.25L9.00002 132.25ZM7.00002 144.75C7.00002 144.198 7.44773 143.75 8.00002 143.75C8.5523 143.75 9.00002 144.198 9.00002 144.75L7.00002 144.75ZM9.00002 157.25C9.00002 157.802 8.5523 158.25 8.00002 158.25C7.44773 158.25 7.00002 157.802 7.00002 157.25L9.00002 157.25ZM7.00002 169.75C7.00002 169.198 7.44773 168.75 8.00002 168.75C8.5523 168.75 9.00002 169.198 9.00002 169.75L7.00002 169.75ZM9.00002 182.25C9.00002 182.802 8.5523 183.25 8.00002 183.25C7.44773 183.25 7.00002 182.802 7.00002 182.25L9.00002 182.25ZM7.00002 194.75C7.00002 194.198 7.44773 193.75 8.00002 193.75C8.5523 193.75 9.00002 194.198 9.00002 194.75L7.00002 194.75ZM9.00002 207.25C9.00002 207.802 8.5523 208.25 8.00002 208.25C7.44773 208.25 7.00002 207.802 7.00002 207.25L9.00002 207.25ZM7.00002 219.75C7.00002 219.198 7.44773 218.75 8.00002 218.75C8.5523 218.75 9.00002 219.198 9.00002 219.75L7.00002 219.75ZM15.5818 225C16.1341 225 16.5818 225.448 16.5818 226C16.5818 226.552 16.1341 227 15.5818 227L15.5818 225ZM30.7454 227C30.1931 227 29.7454 226.552 29.7454 226C29.7454 225.448 30.1931 225 30.7454 225L30.7454 227ZM9.00002 1.00043L9.00002 7.25041L7.00002 7.25041L7.00002 1.00043L9.00002 1.00043ZM9.00002 19.7504L9.00002 32.2504L7.00002 32.2504L7.00002 19.7504L9.00002 19.7504ZM9.00002 44.7504L9.00002 57.2503L7.00002 57.2503L7.00002 44.7504L9.00002 44.7504ZM9.00002 69.7503L9.00002 82.2503L7.00002 82.2503L7.00002 69.7503L9.00002 69.7503ZM9.00002 94.7503L9.00002 107.25L7.00002 107.25L7.00002 94.7503L9.00002 94.7503ZM9.00002 119.75L9.00002 132.25L7.00002 132.25L7.00002 119.75L9.00002 119.75ZM9.00002 144.75L9.00002 157.25L7.00002 157.25L7.00002 144.75L9.00002 144.75ZM9.00002 169.75L9.00002 182.25L7.00002 182.25L7.00002 169.75L9.00002 169.75ZM9.00002 194.75L9.00002 207.25L7.00002 207.25L7.00002 194.75L9.00002 194.75ZM9.00002 219.75L9.00002 226L7.00002 226L7.00002 219.75L9.00002 219.75ZM8.00002 225L15.5818 225L15.5818 227L8.00002 227L8.00002 225ZM30.7454 225L38.3271 225L38.3271 227L30.7454 227L30.7454 225Z" fill="#96A2FF"/>
</svg>
