<svg width="812" height="473" viewBox="0 0 812 473" fill="none" xmlns="http://www.w3.org/2000/svg">
<path d="M8.00001 398L8.00001 399L7.00001 399L7.00001 398L8.00001 398ZM804 398L804 397L805 397L805 398L804 398ZM804.707 472.707C804.317 473.098 803.683 473.098 803.293 472.707L796.929 466.343C796.538 465.953 796.538 465.32 796.929 464.929C797.319 464.538 797.953 464.538 798.343 464.929L804 470.586L809.657 464.929C810.047 464.538 810.68 464.538 811.071 464.929C811.462 465.32 811.462 465.953 811.071 466.343L804.707 472.707ZM7.29293 0.292847C7.68346 -0.0976868 8.31662 -0.0976867 8.70715 0.292847L15.0711 6.6568C15.4616 7.04733 15.4616 7.68048 15.0711 8.07102C14.6806 8.46152 14.0474 8.46152 13.6569 8.07101L8.00004 2.41415L2.34319 8.07101C1.95266 8.46152 1.3195 8.46152 0.928973 8.07101C0.538448 7.68048 0.538448 7.04733 0.928973 6.6568L7.29293 0.292847ZM9.00004 6.83817C9.00004 7.39047 8.55233 7.83817 8.00004 7.83817C7.44776 7.83817 7.00004 7.39047 7.00004 6.83817L9.00004 6.83817ZM7.00004 18.5146C7.00004 17.9624 7.44775 17.5146 8.00004 17.5146C8.55232 17.5146 9.00004 17.9624 9.00004 18.5146L7.00004 18.5146ZM9.00004 30.1911C9.00004 30.7434 8.55232 31.1911 8.00004 31.1911C7.44775 31.1911 7.00004 30.7434 7.00004 30.1911L9.00004 30.1911ZM7.00004 41.8676C7.00004 41.3153 7.44775 40.8676 8.00004 40.8676C8.55232 40.8676 9.00004 41.3153 9.00004 41.8676L7.00004 41.8676ZM9.00004 53.5441C9.00004 54.0963 8.55232 54.5441 8.00004 54.5441C7.44775 54.5441 7.00004 54.0963 7.00004 53.5441L9.00004 53.5441ZM7.00004 65.2205C7.00004 64.6682 7.44775 64.2205 8.00004 64.2205C8.55232 64.2205 9.00004 64.6682 9.00004 65.2205L7.00004 65.2205ZM9.00003 76.897C9.00003 77.4493 8.55232 77.897 8.00003 77.897C7.44775 77.897 7.00003 77.4493 7.00003 76.897L9.00003 76.897ZM7.00003 88.5735C7.00003 88.0212 7.44775 87.5735 8.00003 87.5735C8.55232 87.5735 9.00003 88.0212 9.00003 88.5735L7.00003 88.5735ZM9.00003 100.25C9.00003 100.802 8.55232 101.25 8.00003 101.25C7.44775 101.25 7.00003 100.802 7.00003 100.25L9.00003 100.25ZM7.00003 111.926C7.00003 111.374 7.44775 110.926 8.00003 110.926C8.55232 110.926 9.00003 111.374 9.00003 111.926L7.00003 111.926ZM9.00003 123.603C9.00003 124.155 8.55232 124.603 8.00003 124.603C7.44775 124.603 7.00003 124.155 7.00003 123.603L9.00003 123.603ZM7.00003 135.279C7.00003 134.727 7.44774 134.279 8.00003 134.279C8.55231 134.279 9.00003 134.727 9.00003 135.279L7.00003 135.279ZM9.00003 146.956C9.00003 147.508 8.55231 147.956 8.00003 147.956C7.44774 147.956 7.00003 147.508 7.00003 146.956L9.00003 146.956ZM7.00003 158.632C7.00003 158.08 7.44774 157.632 8.00003 157.632C8.55231 157.632 9.00003 158.08 9.00003 158.632L7.00003 158.632ZM9.00003 170.309C9.00003 170.861 8.55231 171.309 8.00003 171.309C7.44774 171.309 7.00003 170.861 7.00003 170.309L9.00003 170.309ZM7.00003 181.985C7.00003 181.433 7.44774 180.985 8.00003 180.985C8.55231 180.985 9.00003 181.433 9.00003 181.985L7.00003 181.985ZM9.00002 193.662C9.00002 194.214 8.55231 194.662 8.00002 194.662C7.44774 194.662 7.00002 194.214 7.00002 193.662L9.00002 193.662ZM7.00002 205.338C7.00002 204.786 7.44774 204.338 8.00002 204.338C8.55231 204.338 9.00002 204.786 9.00002 205.338L7.00002 205.338ZM9.00002 217.015C9.00002 217.567 8.55231 218.015 8.00002 218.015C7.44774 218.015 7.00002 217.567 7.00002 217.015L9.00002 217.015ZM7.00002 228.691C7.00002 228.139 7.44774 227.691 8.00002 227.691C8.55231 227.691 9.00002 228.139 9.00002 228.691L7.00002 228.691ZM9.00002 240.368C9.00002 240.92 8.5523 241.368 8.00002 241.368C7.44774 241.368 7.00002 240.92 7.00002 240.368L9.00002 240.368ZM7.00002 252.044C7.00002 251.492 7.44773 251.044 8.00002 251.044C8.5523 251.044 9.00002 251.492 9.00002 252.044L7.00002 252.044ZM9.00002 263.721C9.00002 264.273 8.5523 264.721 8.00002 264.721C7.44773 264.721 7.00002 264.273 7.00002 263.721L9.00002 263.721ZM7.00002 275.397C7.00002 274.845 7.44773 274.397 8.00002 274.397C8.5523 274.397 9.00002 274.845 9.00002 275.397L7.00002 275.397ZM9.00002 287.074C9.00002 287.626 8.5523 288.074 8.00002 288.074C7.44773 288.074 7.00002 287.626 7.00002 287.074L9.00002 287.074ZM7.00002 298.75C7.00002 298.198 7.44773 297.75 8.00002 297.75C8.5523 297.75 9.00002 298.198 9.00002 298.75L7.00002 298.75ZM9.00001 310.426C9.00001 310.979 8.5523 311.426 8.00001 311.426C7.44773 311.426 7.00001 310.979 7.00001 310.426L9.00001 310.426ZM7.00001 322.103C7.00001 321.551 7.44773 321.103 8.00001 321.103C8.5523 321.103 9.00001 321.551 9.00001 322.103L7.00001 322.103ZM9.00001 333.779C9.00001 334.332 8.5523 334.779 8.00001 334.779C7.44773 334.779 7.00001 334.332 7.00001 333.779L9.00001 333.779ZM7.00001 345.456C7.00001 344.904 7.44773 344.456 8.00001 344.456C8.5523 344.456 9.00001 344.904 9.00001 345.456L7.00001 345.456ZM9.00001 357.132C9.00001 357.685 8.55229 358.132 8.00001 358.132C7.44773 358.132 7.00001 357.685 7.00001 357.132L9.00001 357.132ZM7.00001 368.809C7.00001 368.257 7.44772 367.809 8.00001 367.809C8.55229 367.809 9.00001 368.257 9.00001 368.809L7.00001 368.809ZM9.00001 380.485C9.00001 381.038 8.55229 381.485 8.00001 381.485C7.44772 381.485 7.00001 381.038 7.00001 380.485L9.00001 380.485ZM7.00001 392.162C7.00001 391.61 7.44772 391.162 8.00001 391.162C8.55229 391.162 9.00001 391.61 9.00001 392.162L7.00001 392.162ZM14.0303 397C14.5826 397 15.0303 397.448 15.0303 398C15.0303 398.552 14.5826 399 14.0303 399L14.0303 397ZM26.0909 399C25.5386 399 25.0909 398.552 25.0909 398C25.0909 397.448 25.5386 397 26.0909 397L26.0909 399ZM38.1515 397C38.7038 397 39.1515 397.448 39.1515 398C39.1515 398.552 38.7038 399 38.1515 399L38.1515 397ZM50.2121 399C49.6598 399 49.2121 398.552 49.2121 398C49.2121 397.448 49.6598 397 50.2121 397L50.2121 399ZM62.2727 397C62.825 397 63.2727 397.448 63.2727 398C63.2727 398.552 62.825 399 62.2727 399L62.2727 397ZM74.3333 399C73.7811 399 73.3333 398.552 73.3333 398C73.3333 397.448 73.7811 397 74.3333 397L74.3333 399ZM86.3939 397C86.9462 397 87.3939 397.448 87.3939 398C87.3939 398.552 86.9462 399 86.3939 399L86.3939 397ZM98.4546 399C97.9023 399 97.4546 398.552 97.4546 398C97.4546 397.448 97.9023 397 98.4546 397L98.4546 399ZM110.515 397C111.067 397 111.515 397.448 111.515 398C111.515 398.552 111.067 399 110.515 399L110.515 397ZM122.576 399C122.023 399 121.576 398.552 121.576 398C121.576 397.448 122.023 397 122.576 397L122.576 399ZM134.636 397C135.189 397 135.636 397.448 135.636 398C135.636 398.552 135.189 399 134.636 399L134.636 397ZM146.697 399C146.145 399 145.697 398.552 145.697 398C145.697 397.448 146.145 397 146.697 397L146.697 399ZM158.758 397C159.31 397 159.758 397.448 159.758 398C159.758 398.552 159.31 399 158.758 399L158.758 397ZM170.818 399C170.266 399 169.818 398.552 169.818 398C169.818 397.448 170.266 397 170.818 397L170.818 399ZM182.879 397C183.431 397 183.879 397.448 183.879 398C183.879 398.552 183.431 399 182.879 399L182.879 397ZM194.939 399C194.387 399 193.939 398.552 193.939 398C193.939 397.448 194.387 397 194.939 397L194.939 399ZM207 397C207.552 397 208 397.448 208 398C208 398.552 207.552 399 207 399L207 397ZM219.061 399C218.508 399 218.061 398.552 218.061 398C218.061 397.448 218.508 397 219.061 397L219.061 399ZM231.121 397C231.674 397 232.121 397.448 232.121 398C232.121 398.552 231.674 399 231.121 399L231.121 397ZM243.182 399C242.63 399 242.182 398.552 242.182 398C242.182 397.448 242.63 397 243.182 397L243.182 399ZM255.242 397C255.795 397 256.242 397.448 256.242 398C256.242 398.552 255.795 399 255.242 399L255.242 397ZM267.303 399C266.751 399 266.303 398.552 266.303 398C266.303 397.448 266.751 397 267.303 397L267.303 399ZM279.364 397C279.916 397 280.364 397.448 280.364 398C280.364 398.552 279.916 399 279.364 399L279.364 397ZM291.424 399C290.872 399 290.424 398.552 290.424 398C290.424 397.448 290.872 397 291.424 397L291.424 399ZM303.485 397C304.037 397 304.485 397.448 304.485 398C304.485 398.552 304.037 399 303.485 399L303.485 397ZM315.545 399C314.993 399 314.545 398.552 314.545 398C314.545 397.448 314.993 397 315.545 397L315.545 399ZM327.606 397C328.158 397 328.606 397.448 328.606 398C328.606 398.552 328.158 399 327.606 399L327.606 397ZM339.667 399C339.114 399 338.667 398.552 338.667 398C338.667 397.448 339.114 397 339.667 397L339.667 399ZM351.727 397C352.28 397 352.727 397.448 352.727 398C352.727 398.552 352.28 399 351.727 399L351.727 397ZM363.788 399C363.236 399 362.788 398.552 362.788 398C362.788 397.448 363.236 397 363.788 397L363.788 399ZM375.849 397C376.401 397 376.849 397.448 376.849 398C376.849 398.552 376.401 399 375.849 399L375.849 397ZM387.909 399C387.357 399 386.909 398.552 386.909 398C386.909 397.448 387.357 397 387.909 397L387.909 399ZM399.97 397C400.522 397 400.97 397.448 400.97 398C400.97 398.552 400.522 399 399.97 399L399.97 397ZM412.03 399C411.478 399 411.03 398.552 411.03 398C411.03 397.448 411.478 397 412.03 397L412.03 399ZM424.091 397C424.643 397 425.091 397.448 425.091 398C425.091 398.552 424.643 399 424.091 399L424.091 397ZM436.152 399C435.599 399 435.152 398.552 435.152 398C435.152 397.448 435.599 397 436.152 397L436.152 399ZM448.212 397C448.764 397 449.212 397.448 449.212 398C449.212 398.552 448.764 399 448.212 399L448.212 397ZM460.273 399C459.72 399 459.273 398.552 459.273 398C459.273 397.448 459.72 397 460.273 397L460.273 399ZM472.333 397C472.886 397 473.333 397.448 473.333 398C473.333 398.552 472.886 399 472.333 399L472.333 397ZM484.394 399C483.842 399 483.394 398.552 483.394 398C483.394 397.448 483.842 397 484.394 397L484.394 399ZM496.455 397C497.007 397 497.455 397.448 497.455 398C497.455 398.552 497.007 399 496.455 399L496.455 397ZM508.515 399C507.963 399 507.515 398.552 507.515 398C507.515 397.448 507.963 397 508.515 397L508.515 399ZM520.576 397C521.128 397 521.576 397.448 521.576 398C521.576 398.552 521.128 399 520.576 399L520.576 397ZM532.636 399C532.084 399 531.636 398.552 531.636 398C531.636 397.448 532.084 397 532.636 397L532.636 399ZM544.697 397C545.249 397 545.697 397.448 545.697 398C545.697 398.552 545.249 399 544.697 399L544.697 397ZM556.758 399C556.205 399 555.758 398.552 555.758 398C555.758 397.448 556.205 397 556.758 397L556.758 399ZM568.818 397C569.37 397 569.818 397.448 569.818 398C569.818 398.552 569.37 399 568.818 399L568.818 397ZM580.879 399C580.327 399 579.879 398.552 579.879 398C579.879 397.448 580.327 397 580.879 397L580.879 399ZM592.939 397C593.492 397 593.939 397.448 593.939 398C593.939 398.552 593.492 399 592.939 399L592.939 397ZM605 399C604.448 399 604 398.552 604 398C604 397.448 604.448 397 605 397L605 399ZM617.061 397C617.613 397 618.061 397.448 618.061 398C618.061 398.552 617.613 399 617.061 399L617.061 397ZM629.121 399C628.569 399 628.121 398.552 628.121 398C628.121 397.448 628.569 397 629.121 397L629.121 399ZM641.182 397C641.734 397 642.182 397.448 642.182 398C642.182 398.552 641.734 399 641.182 399L641.182 397ZM653.242 399C652.69 399 652.242 398.552 652.242 398C652.242 397.448 652.69 397 653.242 397L653.242 399ZM665.303 397C665.855 397 666.303 397.448 666.303 398C666.303 398.552 665.855 399 665.303 399L665.303 397ZM677.364 399C676.811 399 676.364 398.552 676.364 398C676.364 397.448 676.811 397 677.364 397L677.364 399ZM689.424 397C689.977 397 690.424 397.448 690.424 398C690.424 398.552 689.977 399 689.424 399L689.424 397ZM701.485 399C700.933 399 700.485 398.552 700.485 398C700.485 397.448 700.933 397 701.485 397L701.485 399ZM713.546 397C714.098 397 714.546 397.448 714.546 398C714.546 398.552 714.098 399 713.546 399L713.546 397ZM725.606 399C725.054 399 724.606 398.552 724.606 398C724.606 397.448 725.054 397 725.606 397L725.606 399ZM737.667 397C738.219 397 738.667 397.448 738.667 398C738.667 398.552 738.219 399 737.667 399L737.667 397ZM749.727 399C749.175 399 748.727 398.552 748.727 398C748.727 397.448 749.175 397 749.727 397L749.727 399ZM761.788 397C762.34 397 762.788 397.448 762.788 398C762.788 398.552 762.34 399 761.788 399L761.788 397ZM773.849 399C773.296 399 772.849 398.552 772.849 398C772.849 397.448 773.296 397 773.849 397L773.849 399ZM785.909 397C786.461 397 786.909 397.448 786.909 398C786.909 398.552 786.461 399 785.909 399L785.909 397ZM797.97 399C797.417 399 796.97 398.552 796.97 398C796.97 397.448 797.417 397 797.97 397L797.97 399ZM805 404.167C805 404.719 804.552 405.167 804 405.167C803.448 405.167 803 404.719 803 404.167L805 404.167ZM803 416.5C803 415.948 803.448 415.5 804 415.5C804.552 415.5 805 415.948 805 416.5L803 416.5ZM805 428.833C805 429.386 804.552 429.833 804 429.833C803.448 429.833 803 429.386 803 428.833L805 428.833ZM803 441.167C803 440.614 803.448 440.167 804 440.167C804.552 440.167 805 440.614 805 441.167L803 441.167ZM805 453.5C805 454.052 804.552 454.5 804 454.5C803.448 454.5 803 454.052 803 453.5L805 453.5ZM803 465.833C803 465.281 803.448 464.833 804 464.833C804.552 464.833 805 465.281 805 465.833L803 465.833ZM9.00004 0.999939L9.00004 6.83817L7.00004 6.83817L7.00004 0.999939L9.00004 0.999939ZM9.00004 18.5146L9.00004 30.1911L7.00004 30.1911L7.00004 18.5146L9.00004 18.5146ZM9.00004 41.8676L9.00004 53.5441L7.00004 53.5441L7.00004 41.8676L9.00004 41.8676ZM9.00004 65.2205L9.00003 76.897L7.00003 76.897L7.00004 65.2205L9.00004 65.2205ZM9.00003 88.5735L9.00003 100.25L7.00003 100.25L7.00003 88.5735L9.00003 88.5735ZM9.00003 111.926L9.00003 123.603L7.00003 123.603L7.00003 111.926L9.00003 111.926ZM9.00003 135.279L9.00003 146.956L7.00003 146.956L7.00003 135.279L9.00003 135.279ZM9.00003 158.632L9.00003 170.309L7.00003 170.309L7.00003 158.632L9.00003 158.632ZM9.00003 181.985L9.00002 193.662L7.00002 193.662L7.00003 181.985L9.00003 181.985ZM9.00002 205.338L9.00002 217.015L7.00002 217.015L7.00002 205.338L9.00002 205.338ZM9.00002 228.691L9.00002 240.368L7.00002 240.368L7.00002 228.691L9.00002 228.691ZM9.00002 252.044L9.00002 263.721L7.00002 263.721L7.00002 252.044L9.00002 252.044ZM9.00002 275.397L9.00002 287.074L7.00002 287.074L7.00002 275.397L9.00002 275.397ZM9.00002 298.75L9.00001 310.426L7.00001 310.426L7.00002 298.75L9.00002 298.75ZM9.00001 322.103L9.00001 333.779L7.00001 333.779L7.00001 322.103L9.00001 322.103ZM9.00001 345.456L9.00001 357.132L7.00001 357.132L7.00001 345.456L9.00001 345.456ZM9.00001 368.809L9.00001 380.485L7.00001 380.485L7.00001 368.809L9.00001 368.809ZM9.00001 392.162L9.00001 398L7.00001 398L7.00001 392.162L9.00001 392.162ZM8.00001 397L14.0303 397L14.0303 399L8.00001 399L8.00001 397ZM26.0909 397L38.1515 397L38.1515 399L26.0909 399L26.0909 397ZM50.2121 397L62.2727 397L62.2727 399L50.2121 399L50.2121 397ZM74.3333 397L86.3939 397L86.3939 399L74.3333 399L74.3333 397ZM98.4546 397L110.515 397L110.515 399L98.4546 399L98.4546 397ZM122.576 397L134.636 397L134.636 399L122.576 399L122.576 397ZM146.697 397L158.758 397L158.758 399L146.697 399L146.697 397ZM170.818 397L182.879 397L182.879 399L170.818 399L170.818 397ZM194.939 397L207 397L207 399L194.939 399L194.939 397ZM219.061 397L231.121 397L231.121 399L219.061 399L219.061 397ZM243.182 397L255.242 397L255.242 399L243.182 399L243.182 397ZM267.303 397L279.364 397L279.364 399L267.303 399L267.303 397ZM291.424 397L303.485 397L303.485 399L291.424 399L291.424 397ZM315.545 397L327.606 397L327.606 399L315.545 399L315.545 397ZM339.667 397L351.727 397L351.727 399L339.667 399L339.667 397ZM363.788 397L375.849 397L375.849 399L363.788 399L363.788 397ZM387.909 397L399.97 397L399.97 399L387.909 399L387.909 397ZM412.03 397L424.091 397L424.091 399L412.03 399L412.03 397ZM436.152 397L448.212 397L448.212 399L436.152 399L436.152 397ZM460.273 397L472.333 397L472.333 399L460.273 399L460.273 397ZM484.394 397L496.455 397L496.455 399L484.394 399L484.394 397ZM508.515 397L520.576 397L520.576 399L508.515 399L508.515 397ZM532.636 397L544.697 397L544.697 399L532.636 399L532.636 397ZM556.758 397L568.818 397L568.818 399L556.758 399L556.758 397ZM580.879 397L592.939 397L592.939 399L580.879 399L580.879 397ZM605 397L617.061 397L617.061 399L605 399L605 397ZM629.121 397L641.182 397L641.182 399L629.121 399L629.121 397ZM653.242 397L665.303 397L665.303 399L653.242 399L653.242 397ZM677.364 397L689.424 397L689.424 399L677.364 399L677.364 397ZM701.485 397L713.546 397L713.546 399L701.485 399L701.485 397ZM725.606 397L737.667 397L737.667 399L725.606 399L725.606 397ZM749.727 397L761.788 397L761.788 399L749.727 399L749.727 397ZM773.849 397L785.909 397L785.909 399L773.849 399L773.849 397ZM797.97 397L804 397L804 399L797.97 399L797.97 397ZM805 398L805 404.167L803 404.167L803 398L805 398ZM805 416.5L805 428.833L803 428.833L803 416.5L805 416.5ZM805 441.167L805 453.5L803 453.5L803 441.167L805 441.167ZM805 465.833L805 472L803 472L803 465.833L805 465.833Z" fill="#96A2FF"/>
</svg>
