<svg width="755" height="473" viewBox="0 0 755 473" fill="none" xmlns="http://www.w3.org/2000/svg">
<path d="M8 75V74H7V75H8ZM747 75V76H748V75H747ZM747.707 0.292893C747.317 -0.0976311 746.683 -0.0976311 746.293 0.292893L739.929 6.65685C739.538 7.04738 739.538 7.68054 739.929 8.07107C740.319 8.46159 740.953 8.46159 741.343 8.07107L747 2.41421L752.657 8.07107C753.047 8.46159 753.681 8.46159 754.071 8.07107C754.462 7.68054 754.462 7.04738 754.071 6.65685L747.707 0.292893ZM7.29289 472.707C7.68342 473.098 8.31658 473.098 8.70711 472.707L15.0711 466.343C15.4616 465.953 15.4616 465.319 15.0711 464.929C14.6805 464.538 14.0474 464.538 13.6569 464.929L8 470.586L2.34315 464.929C1.95262 464.538 1.31946 464.538 0.928932 464.929C0.538408 465.319 0.538408 465.953 0.928932 466.343L7.29289 472.707ZM9 466.162C9 465.609 8.55228 465.162 8 465.162C7.44772 465.162 7 465.609 7 466.162H9ZM7 454.485C7 455.038 7.44772 455.485 8 455.485C8.55228 455.485 9 455.038 9 454.485H7ZM9 442.809C9 442.257 8.55228 441.809 8 441.809C7.44772 441.809 7 442.257 7 442.809H9ZM7 431.132C7 431.685 7.44772 432.132 8 432.132C8.55228 432.132 9 431.685 9 431.132H7ZM9 419.456C9 418.904 8.55228 418.456 8 418.456C7.44772 418.456 7 418.904 7 419.456H9ZM7 407.779C7 408.332 7.44772 408.779 8 408.779C8.55228 408.779 9 408.332 9 407.779H7ZM9 396.103C9 395.551 8.55228 395.103 8 395.103C7.44772 395.103 7 395.551 7 396.103H9ZM7 384.426C7 384.979 7.44772 385.426 8 385.426C8.55228 385.426 9 384.979 9 384.426H7ZM9 372.75C9 372.198 8.55228 371.75 8 371.75C7.44772 371.75 7 372.198 7 372.75H9ZM7 361.074C7 361.626 7.44772 362.074 8 362.074C8.55228 362.074 9 361.626 9 361.074H7ZM9 349.397C9 348.845 8.55228 348.397 8 348.397C7.44772 348.397 7 348.845 7 349.397H9ZM7 337.721C7 338.273 7.44772 338.721 8 338.721C8.55228 338.721 9 338.273 9 337.721H7ZM9 326.044C9 325.492 8.55228 325.044 8 325.044C7.44772 325.044 7 325.492 7 326.044H9ZM7 314.368C7 314.92 7.44772 315.368 8 315.368C8.55228 315.368 9 314.92 9 314.368H7ZM9 302.691C9 302.139 8.55228 301.691 8 301.691C7.44772 301.691 7 302.139 7 302.691H9ZM7 291.015C7 291.567 7.44772 292.015 8 292.015C8.55228 292.015 9 291.567 9 291.015H7ZM9 279.338C9 278.786 8.55228 278.338 8 278.338C7.44772 278.338 7 278.786 7 279.338H9ZM7 267.662C7 268.214 7.44772 268.662 8 268.662C8.55228 268.662 9 268.214 9 267.662H7ZM9 255.985C9 255.433 8.55228 254.985 8 254.985C7.44772 254.985 7 255.433 7 255.985H9ZM7 244.309C7 244.861 7.44772 245.309 8 245.309C8.55228 245.309 9 244.861 9 244.309H7ZM9 232.632C9 232.08 8.55228 231.632 8 231.632C7.44772 231.632 7 232.08 7 232.632H9ZM7 220.956C7 221.508 7.44772 221.956 8 221.956C8.55228 221.956 9 221.508 9 220.956H7ZM9 209.279C9 208.727 8.55228 208.279 8 208.279C7.44772 208.279 7 208.727 7 209.279H9ZM7 197.603C7 198.155 7.44772 198.603 8 198.603C8.55228 198.603 9 198.155 9 197.603H7ZM9 185.926C9 185.374 8.55228 184.926 8 184.926C7.44772 184.926 7 185.374 7 185.926H9ZM7 174.25C7 174.802 7.44772 175.25 8 175.25C8.55228 175.25 9 174.802 9 174.25H7ZM9 162.574C9 162.021 8.55228 161.574 8 161.574C7.44772 161.574 7 162.021 7 162.574H9ZM7 150.897C7 151.449 7.44772 151.897 8 151.897C8.55228 151.897 9 151.449 9 150.897H7ZM9 139.221C9 138.668 8.55228 138.221 8 138.221C7.44772 138.221 7 138.668 7 139.221H9ZM7 127.544C7 128.096 7.44772 128.544 8 128.544C8.55228 128.544 9 128.096 9 127.544H7ZM9 115.868C9 115.315 8.55228 114.868 8 114.868C7.44772 114.868 7 115.315 7 115.868H9ZM7 104.191C7 104.743 7.44772 105.191 8 105.191C8.55228 105.191 9 104.743 9 104.191H7ZM9 92.5146C9 91.9623 8.55228 91.5146 8 91.5146C7.44772 91.5146 7 91.9623 7 92.5146H9ZM7 80.8381C7 81.3904 7.44772 81.8381 8 81.8381C8.55228 81.8381 9 81.3904 9 80.8381H7ZM13.9597 76C14.512 76 14.9597 75.5523 14.9597 75C14.9597 74.4477 14.512 74 13.9597 74V76ZM25.879 74C25.3267 74 24.879 74.4477 24.879 75C24.879 75.5523 25.3267 76 25.879 76V74ZM37.7984 76C38.3507 76 38.7984 75.5523 38.7984 75C38.7984 74.4477 38.3507 74 37.7984 74V76ZM49.7177 74C49.1655 74 48.7177 74.4477 48.7177 75C48.7177 75.5523 49.1655 76 49.7177 76V74ZM61.6371 76C62.1894 76 62.6371 75.5523 62.6371 75C62.6371 74.4477 62.1894 74 61.6371 74V76ZM73.5564 74C73.0042 74 72.5564 74.4477 72.5564 75C72.5564 75.5523 73.0042 76 73.5564 76V74ZM85.4758 76C86.0281 76 86.4758 75.5523 86.4758 75C86.4758 74.4477 86.0281 74 85.4758 74V76ZM97.3952 74C96.8429 74 96.3952 74.4477 96.3952 75C96.3952 75.5523 96.8429 76 97.3952 76V74ZM109.315 76C109.867 76 110.315 75.5523 110.315 75C110.315 74.4477 109.867 74 109.315 74V76ZM121.234 74C120.682 74 120.234 74.4477 120.234 75C120.234 75.5523 120.682 76 121.234 76V74ZM133.153 76C133.706 76 134.153 75.5523 134.153 75C134.153 74.4477 133.706 74 133.153 74V76ZM145.073 74C144.52 74 144.073 74.4477 144.073 75C144.073 75.5523 144.52 76 145.073 76V74ZM156.992 76C157.544 76 157.992 75.5523 157.992 75C157.992 74.4477 157.544 74 156.992 74V76ZM168.911 74C168.359 74 167.911 74.4477 167.911 75C167.911 75.5523 168.359 76 168.911 76V74ZM180.831 76C181.383 76 181.831 75.5523 181.831 75C181.831 74.4477 181.383 74 180.831 74V76ZM192.75 74C192.198 74 191.75 74.4477 191.75 75C191.75 75.5523 192.198 76 192.75 76V74ZM204.669 76C205.222 76 205.669 75.5523 205.669 75C205.669 74.4477 205.222 74 204.669 74V76ZM216.589 74C216.036 74 215.589 74.4477 215.589 75C215.589 75.5523 216.036 76 216.589 76V74ZM228.508 76C229.06 76 229.508 75.5523 229.508 75C229.508 74.4477 229.06 74 228.508 74V76ZM240.427 74C239.875 74 239.427 74.4477 239.427 75C239.427 75.5523 239.875 76 240.427 76V74ZM252.347 76C252.899 76 253.347 75.5523 253.347 75C253.347 74.4477 252.899 74 252.347 74V76ZM264.266 74C263.714 74 263.266 74.4477 263.266 75C263.266 75.5523 263.714 76 264.266 76V74ZM276.185 76C276.738 76 277.185 75.5523 277.185 75C277.185 74.4477 276.738 74 276.185 74V76ZM288.105 74C287.553 74 287.105 74.4477 287.105 75C287.105 75.5523 287.553 76 288.105 76V74ZM300.024 76C300.576 76 301.024 75.5523 301.024 75C301.024 74.4477 300.576 74 300.024 74V76ZM311.944 74C311.391 74 310.944 74.4477 310.944 75C310.944 75.5523 311.391 76 311.944 76V74ZM323.863 76C324.415 76 324.863 75.5523 324.863 75C324.863 74.4477 324.415 74 323.863 74V76ZM335.782 74C335.23 74 334.782 74.4477 334.782 75C334.782 75.5523 335.23 76 335.782 76V74ZM347.702 76C348.254 76 348.702 75.5523 348.702 75C348.702 74.4477 348.254 74 347.702 74V76ZM359.621 74C359.069 74 358.621 74.4477 358.621 75C358.621 75.5523 359.069 76 359.621 76V74ZM371.54 76C372.093 76 372.54 75.5523 372.54 75C372.54 74.4477 372.093 74 371.54 74V76ZM383.46 74C382.907 74 382.46 74.4477 382.46 75C382.46 75.5523 382.907 76 383.46 76V74ZM395.379 76C395.931 76 396.379 75.5523 396.379 75C396.379 74.4477 395.931 74 395.379 74V76ZM407.298 74C406.746 74 406.298 74.4477 406.298 75C406.298 75.5523 406.746 76 407.298 76V74ZM419.218 76C419.77 76 420.218 75.5523 420.218 75C420.218 74.4477 419.77 74 419.218 74V76ZM431.137 74C430.585 74 430.137 74.4477 430.137 75C430.137 75.5523 430.585 76 431.137 76V74ZM443.056 76C443.609 76 444.056 75.5523 444.056 75C444.056 74.4477 443.609 74 443.056 74V76ZM454.976 74C454.423 74 453.976 74.4477 453.976 75C453.976 75.5523 454.423 76 454.976 76V74ZM466.895 76C467.447 76 467.895 75.5523 467.895 75C467.895 74.4477 467.447 74 466.895 74V76ZM478.814 74C478.262 74 477.814 74.4477 477.814 75C477.814 75.5523 478.262 76 478.814 76V74ZM490.734 76C491.286 76 491.734 75.5523 491.734 75C491.734 74.4477 491.286 74 490.734 74V76ZM502.653 74C502.101 74 501.653 74.4477 501.653 75C501.653 75.5523 502.101 76 502.653 76V74ZM514.572 76C515.125 76 515.572 75.5523 515.572 75C515.572 74.4477 515.125 74 514.572 74V76ZM526.492 74C525.939 74 525.492 74.4477 525.492 75C525.492 75.5523 525.939 76 526.492 76V74ZM538.411 76C538.963 76 539.411 75.5523 539.411 75C539.411 74.4477 538.963 74 538.411 74V76ZM550.33 74C549.778 74 549.33 74.4477 549.33 75C549.33 75.5523 549.778 76 550.33 76V74ZM562.25 76C562.802 76 563.25 75.5523 563.25 75C563.25 74.4477 562.802 74 562.25 74V76ZM574.169 74C573.617 74 573.169 74.4477 573.169 75C573.169 75.5523 573.617 76 574.169 76V74ZM586.089 76C586.641 76 587.089 75.5523 587.089 75C587.089 74.4477 586.641 74 586.089 74V76ZM598.008 74C597.456 74 597.008 74.4477 597.008 75C597.008 75.5523 597.456 76 598.008 76V74ZM609.927 76C610.48 76 610.927 75.5523 610.927 75C610.927 74.4477 610.48 74 609.927 74V76ZM621.847 74C621.294 74 620.847 74.4477 620.847 75C620.847 75.5523 621.294 76 621.847 76V74ZM633.766 76C634.318 76 634.766 75.5523 634.766 75C634.766 74.4477 634.318 74 633.766 74V76ZM645.685 74C645.133 74 644.685 74.4477 644.685 75C644.685 75.5523 645.133 76 645.685 76V74ZM657.605 76C658.157 76 658.605 75.5523 658.605 75C658.605 74.4477 658.157 74 657.605 74V76ZM669.524 74C668.972 74 668.524 74.4477 668.524 75C668.524 75.5523 668.972 76 669.524 76V74ZM681.444 76C681.996 76 682.444 75.5523 682.444 75C682.444 74.4477 681.996 74 681.444 74V76ZM693.363 74C692.811 74 692.363 74.4477 692.363 75C692.363 75.5523 692.811 76 693.363 76V74ZM705.282 76C705.835 76 706.282 75.5523 706.282 75C706.282 74.4477 705.835 74 705.282 74V76ZM717.202 74C716.649 74 716.202 74.4477 716.202 75C716.202 75.5523 716.649 76 717.202 76V74ZM729.121 76C729.673 76 730.121 75.5523 730.121 75C730.121 74.4477 729.673 74 729.121 74V76ZM741.04 74C740.488 74 740.04 74.4477 740.04 75C740.04 75.5523 740.488 76 741.04 76V74ZM748 68.8333C748 68.281 747.552 67.8333 747 67.8333C746.448 67.8333 746 68.281 746 68.8333H748ZM746 56.5C746 57.0523 746.448 57.5 747 57.5C747.552 57.5 748 57.0523 748 56.5H746ZM748 44.1667C748 43.6144 747.552 43.1667 747 43.1667C746.448 43.1667 746 43.6144 746 44.1667H748ZM746 31.8333C746 32.3856 746.448 32.8333 747 32.8333C747.552 32.8333 748 32.3856 748 31.8333H746ZM748 19.5C748 18.9477 747.552 18.5 747 18.5C746.448 18.5 746 18.9477 746 19.5H748ZM746 7.16667C746 7.71895 746.448 8.16667 747 8.16667C747.552 8.16667 748 7.71895 748 7.16667H746ZM9 472V466.162H7V472H9ZM9 454.485V442.809H7V454.485H9ZM9 431.132V419.456H7V431.132H9ZM9 407.779V396.103H7V407.779H9ZM9 384.426V372.75H7V384.426H9ZM9 361.074V349.397H7V361.074H9ZM9 337.721V326.044H7V337.721H9ZM9 314.368V302.691H7V314.368H9ZM9 291.015V279.338H7V291.015H9ZM9 267.662V255.985H7V267.662H9ZM9 244.309V232.632H7V244.309H9ZM9 220.956V209.279H7V220.956H9ZM9 197.603V185.926H7V197.603H9ZM9 174.25V162.574H7V174.25H9ZM9 150.897V139.221H7V150.897H9ZM9 127.544V115.868H7V127.544H9ZM9 104.191V92.5146H7V104.191H9ZM9 80.8381V75H7V80.8381H9ZM8 76H13.9597V74H8V76ZM25.879 76H37.7984V74H25.879V76ZM49.7177 76H61.6371V74H49.7177V76ZM73.5564 76H85.4758V74H73.5564V76ZM97.3952 76H109.315V74H97.3952V76ZM121.234 76H133.153V74H121.234V76ZM145.073 76H156.992V74H145.073V76ZM168.911 76H180.831V74H168.911V76ZM192.75 76H204.669V74H192.75V76ZM216.589 76H228.508V74H216.589V76ZM240.427 76H252.347V74H240.427V76ZM264.266 76H276.185V74H264.266V76ZM288.105 76H300.024V74H288.105V76ZM311.944 76H323.863V74H311.944V76ZM335.782 76H347.702V74H335.782V76ZM359.621 76H371.54V74H359.621V76ZM383.46 76H395.379V74H383.46V76ZM407.298 76H419.218V74H407.298V76ZM431.137 76H443.056V74H431.137V76ZM454.976 76H466.895V74H454.976V76ZM478.814 76H490.734V74H478.814V76ZM502.653 76H514.572V74H502.653V76ZM526.492 76H538.411V74H526.492V76ZM550.33 76H562.25V74H550.33V76ZM574.169 76H586.089V74H574.169V76ZM598.008 76H609.927V74H598.008V76ZM621.847 76H633.766V74H621.847V76ZM645.685 76H657.605V74H645.685V76ZM669.524 76H681.444V74H669.524V76ZM693.363 76H705.282V74H693.363V76ZM717.202 76H729.121V74H717.202V76ZM741.04 76H747V74H741.04V76ZM748 75V68.8333H746V75H748ZM748 56.5V44.1667H746V56.5H748ZM748 31.8333V19.5H746V31.8333H748ZM748 7.16667V1H746V7.16667H748Z" fill="#96A2FF"/>
</svg>
