<svg width="238" height="203" viewBox="0 0 238 203" fill="none" xmlns="http://www.w3.org/2000/svg">
<path d="M52.6733 7.99999L52.6733 6.99999L53.6733 6.99999L53.6733 7.99999L52.6733 7.99999ZM52.6733 195L52.6733 196L51.6733 196L51.6733 195L52.6733 195ZM237.707 194.293C238.098 194.683 238.098 195.317 237.707 195.707L231.343 202.071C230.953 202.462 230.319 202.462 229.929 202.071C229.538 201.681 229.538 201.047 229.929 200.657L235.586 195L229.929 189.343C229.538 188.953 229.538 188.319 229.929 187.929C230.319 187.538 230.953 187.538 231.343 187.929L237.707 194.293ZM0.29291 8.70712C-0.0976147 8.31659 -0.0976148 7.68343 0.292909 7.29291L6.65687 0.92894C7.04739 0.538422 7.68056 0.538422 8.07108 0.92894C8.46161 1.31946 8.46161 1.95262 8.07108 2.34316L2.41423 8.00002L8.07109 13.6569C8.46161 14.0474 8.46161 14.6805 8.07109 15.0711C7.68056 15.4616 7.0474 15.4616 6.65687 15.0711L0.29291 8.70712ZM7.45918 7C8.01147 7 8.45918 7.44772 8.45918 8C8.45918 8.55229 8.01147 9 7.45918 9L7.45918 7ZM20.3775 9C19.8252 9 19.3775 8.55229 19.3775 8C19.3775 7.44772 19.8252 7 20.3775 7L20.3775 9ZM33.2958 7C33.8481 7 34.2958 7.44771 34.2958 8C34.2958 8.55228 33.8481 9 33.2958 9L33.2958 7ZM46.2142 8.99999C45.6619 8.99999 45.2142 8.55228 45.2142 7.99999C45.2142 7.44771 45.6619 6.99999 46.2142 6.99999L46.2142 8.99999ZM53.6733 13.8437C53.6733 14.396 53.2256 14.8437 52.6733 14.8437C52.1211 14.8437 51.6733 14.396 51.6733 13.8437L53.6733 13.8437ZM51.6733 25.5312C51.6733 24.9789 52.1211 24.5312 52.6733 24.5312C53.2256 24.5312 53.6733 24.9789 53.6733 25.5312L51.6733 25.5312ZM53.6733 37.2187C53.6733 37.771 53.2256 38.2187 52.6733 38.2187C52.1211 38.2187 51.6733 37.771 51.6733 37.2187L53.6733 37.2187ZM51.6733 48.9061C51.6733 48.3539 52.1211 47.9061 52.6733 47.9061C53.2256 47.9061 53.6733 48.3539 53.6733 48.9061L51.6733 48.9061ZM53.6733 60.5936C53.6733 61.1459 53.2256 61.5936 52.6733 61.5936C52.1211 61.5936 51.6733 61.1459 51.6733 60.5936L53.6733 60.5936ZM51.6733 72.2811C51.6733 71.7288 52.1211 71.2811 52.6733 71.2811C53.2256 71.2811 53.6733 71.7288 53.6733 72.2811L51.6733 72.2811ZM53.6733 83.9686C53.6733 84.5209 53.2256 84.9686 52.6733 84.9686C52.1211 84.9686 51.6733 84.5209 51.6733 83.9686L53.6733 83.9686ZM51.6733 95.656C51.6733 95.1038 52.1211 94.656 52.6733 94.656C53.2256 94.656 53.6733 95.1038 53.6733 95.656L51.6733 95.656ZM53.6733 107.344C53.6733 107.896 53.2256 108.344 52.6733 108.344C52.1211 108.344 51.6733 107.896 51.6733 107.344L53.6733 107.344ZM51.6733 119.031C51.6733 118.479 52.1211 118.031 52.6733 118.031C53.2256 118.031 53.6733 118.479 53.6733 119.031L51.6733 119.031ZM53.6733 130.718C53.6733 131.271 53.2256 131.718 52.6733 131.718C52.1211 131.718 51.6733 131.271 51.6733 130.718L53.6733 130.718ZM51.6733 142.406C51.6733 141.854 52.1211 141.406 52.6733 141.406C53.2256 141.406 53.6733 141.854 53.6733 142.406L51.6733 142.406ZM53.6733 154.093C53.6733 154.646 53.2256 155.093 52.6733 155.093C52.1211 155.093 51.6733 154.646 51.6733 154.093L53.6733 154.093ZM51.6733 165.781C51.6733 165.229 52.1211 164.781 52.6733 164.781C53.2256 164.781 53.6733 165.229 53.6733 165.781L51.6733 165.781ZM53.6733 177.468C53.6733 178.021 53.2256 178.468 52.6733 178.468C52.1211 178.468 51.6733 178.021 51.6733 177.468L53.6733 177.468ZM51.6733 189.156C51.6733 188.604 52.1211 188.156 52.6733 188.156C53.2256 188.156 53.6733 188.604 53.6733 189.156L51.6733 189.156ZM58.4335 194C58.9858 194 59.4335 194.447 59.4335 195C59.4335 195.552 58.9858 196 58.4335 196L58.4335 194ZM69.954 196C69.4017 196 68.954 195.552 68.954 195C68.954 194.447 69.4017 194 69.954 194L69.954 196ZM81.4744 194C82.0267 194 82.4744 194.447 82.4744 195C82.4744 195.552 82.0267 196 81.4744 196L81.4744 194ZM92.9948 196C92.4425 196 91.9948 195.552 91.9948 195C91.9948 194.447 92.4425 194 92.9948 194L92.9948 196ZM104.515 194C105.067 194 105.515 194.447 105.515 195C105.515 195.552 105.067 196 104.515 196L104.515 194ZM116.036 196C115.483 196 115.036 195.552 115.036 195C115.036 194.447 115.483 194 116.036 194L116.036 196ZM127.556 194C128.108 194 128.556 194.447 128.556 195C128.556 195.552 128.108 196 127.556 196L127.556 194ZM139.076 196C138.524 196 138.076 195.552 138.076 195C138.076 194.447 138.524 194 139.076 194L139.076 196ZM150.597 194C151.149 194 151.597 194.448 151.597 195C151.597 195.552 151.149 196 150.597 196L150.597 194ZM162.117 196C161.565 196 161.117 195.552 161.117 195C161.117 194.448 161.565 194 162.117 194L162.117 196ZM173.638 194C174.19 194 174.638 194.448 174.638 195C174.638 195.552 174.19 196 173.638 196L173.638 194ZM185.158 196C184.606 196 184.158 195.552 184.158 195C184.158 194.448 184.606 194 185.158 194L185.158 196ZM196.679 194C197.231 194 197.679 194.448 197.679 195C197.679 195.552 197.231 196 196.679 196L196.679 194ZM208.199 196C207.647 196 207.199 195.552 207.199 195C207.199 194.448 207.647 194 208.199 194L208.199 196ZM219.719 194C220.272 194 220.719 194.448 220.719 195C220.719 195.552 220.272 196 219.719 196L219.719 194ZM231.24 196C230.687 196 230.24 195.552 230.24 195C230.24 194.448 230.687 194 231.24 194L231.24 196ZM1.00002 7.00002L7.45918 7L7.45918 9L1.00002 9.00002L1.00002 7.00002ZM20.3775 7L33.2958 7L33.2958 9L20.3775 9L20.3775 7ZM46.2142 6.99999L52.6733 6.99999L52.6733 8.99999L46.2142 8.99999L46.2142 6.99999ZM53.6733 7.99999L53.6733 13.8437L51.6733 13.8437L51.6733 7.99999L53.6733 7.99999ZM53.6733 25.5312L53.6733 37.2187L51.6733 37.2187L51.6733 25.5312L53.6733 25.5312ZM53.6733 48.9061L53.6733 60.5936L51.6733 60.5936L51.6733 48.9061L53.6733 48.9061ZM53.6733 72.2811L53.6733 83.9686L51.6733 83.9686L51.6733 72.2811L53.6733 72.2811ZM53.6733 95.656L53.6733 107.344L51.6733 107.344L51.6733 95.656L53.6733 95.656ZM53.6733 119.031L53.6733 130.718L51.6733 130.718L51.6733 119.031L53.6733 119.031ZM53.6733 142.406L53.6733 154.093L51.6733 154.093L51.6733 142.406L53.6733 142.406ZM53.6733 165.781L53.6733 177.468L51.6733 177.468L51.6733 165.781L53.6733 165.781ZM53.6733 189.156L53.6733 195L51.6733 195L51.6733 189.156L53.6733 189.156ZM52.6733 194L58.4335 194L58.4335 196L52.6733 196L52.6733 194ZM69.954 194L81.4744 194L81.4744 196L69.954 196L69.954 194ZM92.9948 194L104.515 194L104.515 196L92.9948 196L92.9948 194ZM116.036 194L127.556 194L127.556 196L116.036 196L116.036 194ZM139.076 194L150.597 194L150.597 196L139.076 196L139.076 194ZM162.117 194L173.638 194L173.638 196L162.117 196L162.117 194ZM185.158 194L196.679 194L196.679 196L185.158 196L185.158 194ZM208.199 194L219.719 194L219.719 196L208.199 196L208.199 194ZM231.24 194L237 194L237 196L231.24 196L231.24 194Z" fill="#96A2FF"/>
</svg>
