<svg width="168" height="198" viewBox="0 0 168 198" fill="none" xmlns="http://www.w3.org/2000/svg">
<path d="M8 112.243V111.243H7V112.243H8ZM160 112.243V113.243H161V112.243H160ZM160.707 0.292893C160.317 -0.0976311 159.683 -0.0976311 159.293 0.292893L152.929 6.65685C152.538 7.04738 152.538 7.68054 152.929 8.07107C153.319 8.46159 153.953 8.46159 154.343 8.07107L160 2.41421L165.657 8.07107C166.047 8.46159 166.681 8.46159 167.071 8.07107C167.462 7.68054 167.462 7.04738 167.071 6.65685L160.707 0.292893ZM7.29289 197.707C7.68342 198.098 8.31658 198.098 8.70711 197.707L15.0711 191.343C15.4616 190.953 15.4616 190.319 15.0711 189.929C14.6805 189.538 14.0474 189.538 13.6569 189.929L8 195.586L2.34315 189.929C1.95262 189.538 1.31946 189.538 0.928932 189.929C0.538408 190.319 0.538408 190.953 0.928932 191.343L7.29289 197.707ZM9 191.703C9 191.15 8.55228 190.703 8 190.703C7.44772 190.703 7 191.15 7 191.703H9ZM7 181.108C7 181.66 7.44772 182.108 8 182.108C8.55228 182.108 9 181.66 9 181.108H7ZM9 170.514C9 169.961 8.55228 169.514 8 169.514C7.44772 169.514 7 169.961 7 170.514H9ZM7 159.919C7 160.471 7.44772 160.919 8 160.919C8.55228 160.919 9 160.471 9 159.919H7ZM9 149.324C9 148.772 8.55228 148.324 8 148.324C7.44772 148.324 7 148.772 7 149.324H9ZM7 138.73C7 139.282 7.44772 139.73 8 139.73C8.55228 139.73 9 139.282 9 138.73H7ZM9 128.135C9 127.583 8.55228 127.135 8 127.135C7.44772 127.135 7 127.583 7 128.135H9ZM7 117.541C7 118.093 7.44772 118.541 8 118.541C8.55228 118.541 9 118.093 9 117.541H7ZM14.3333 113.243C14.8856 113.243 15.3333 112.796 15.3333 112.243C15.3333 111.691 14.8856 111.243 14.3333 111.243V113.243ZM27 111.243C26.4477 111.243 26 111.691 26 112.243C26 112.796 26.4477 113.243 27 113.243V111.243ZM39.6667 113.243C40.219 113.243 40.6667 112.796 40.6667 112.243C40.6667 111.691 40.219 111.243 39.6667 111.243V113.243ZM52.3333 111.243C51.7811 111.243 51.3333 111.691 51.3333 112.243C51.3333 112.796 51.7811 113.243 52.3333 113.243V111.243ZM65 113.243C65.5523 113.243 66 112.796 66 112.243C66 111.691 65.5523 111.243 65 111.243V113.243ZM77.6667 111.243C77.1144 111.243 76.6667 111.691 76.6667 112.243C76.6667 112.796 77.1144 113.243 77.6667 113.243V111.243ZM90.3333 113.243C90.8856 113.243 91.3333 112.796 91.3333 112.243C91.3333 111.691 90.8856 111.243 90.3333 111.243V113.243ZM103 111.243C102.448 111.243 102 111.691 102 112.243C102 112.796 102.448 113.243 103 113.243V111.243ZM115.667 113.243C116.219 113.243 116.667 112.796 116.667 112.243C116.667 111.691 116.219 111.243 115.667 111.243V113.243ZM128.333 111.243C127.781 111.243 127.333 111.691 127.333 112.243C127.333 112.796 127.781 113.243 128.333 113.243V111.243ZM141 113.243C141.552 113.243 142 112.796 142 112.243C142 111.691 141.552 111.243 141 111.243V113.243ZM153.667 111.243C153.114 111.243 152.667 111.691 152.667 112.243C152.667 112.796 153.114 113.243 153.667 113.243V111.243ZM161 106.681C161 106.129 160.552 105.681 160 105.681C159.448 105.681 159 106.129 159 106.681H161ZM159 95.5568C159 96.109 159.448 96.5568 160 96.5568C160.552 96.5568 161 96.109 161 95.5568H159ZM161 84.4324C161 83.8801 160.552 83.4324 160 83.4324C159.448 83.4324 159 83.8801 159 84.4324H161ZM159 73.3081C159 73.8604 159.448 74.3081 160 74.3081C160.552 74.3081 161 73.8604 161 73.3081H159ZM161 62.1838C161 61.6315 160.552 61.1838 160 61.1838C159.448 61.1838 159 61.6315 159 62.1838H161ZM159 51.0595C159 51.6117 159.448 52.0595 160 52.0595C160.552 52.0595 161 51.6117 161 51.0595H159ZM161 39.9351C161 39.3829 160.552 38.9351 160 38.9351C159.448 38.9351 159 39.3829 159 39.9351H161ZM159 28.8108C159 29.3631 159.448 29.8108 160 29.8108C160.552 29.8108 161 29.3631 161 28.8108H159ZM161 17.6865C161 17.1342 160.552 16.6865 160 16.6865C159.448 16.6865 159 17.1342 159 17.6865H161ZM159 6.56216C159 7.11444 159.448 7.56216 160 7.56216C160.552 7.56216 161 7.11444 161 6.56216H159ZM9 197V191.703H7V197H9ZM9 181.108V170.514H7V181.108H9ZM9 159.919V149.324H7V159.919H9ZM9 138.73V128.135H7V138.73H9ZM9 117.541V112.243H7V117.541H9ZM8 113.243H14.3333V111.243H8V113.243ZM27 113.243H39.6667V111.243H27V113.243ZM52.3333 113.243H65V111.243H52.3333V113.243ZM77.6667 113.243H90.3333V111.243H77.6667V113.243ZM103 113.243H115.667V111.243H103V113.243ZM128.333 113.243H141V111.243H128.333V113.243ZM153.667 113.243H160V111.243H153.667V113.243ZM161 112.243V106.681H159V112.243H161ZM161 95.5568V84.4324H159V95.5568H161ZM161 73.3081V62.1838H159V73.3081H161ZM161 51.0595V39.9351H159V51.0595H161ZM161 28.8108V17.6865H159V28.8108H161ZM161 6.56216V1H159V6.56216H161Z" fill="#96A2FF"/>
</svg>
