<svg width="162" height="260" viewBox="0 0 162 260" fill="none" xmlns="http://www.w3.org/2000/svg">
<path d="M8 58.6798V57.6798H7V58.6798H8ZM154 58.6798V59.6798H155V58.6798H154ZM154.707 0.292893C154.317 -0.0976311 153.683 -0.0976311 153.293 0.292893L146.929 6.65685C146.538 7.04738 146.538 7.68054 146.929 8.07107C147.319 8.46159 147.953 8.46159 148.343 8.07107L154 2.41421L159.657 8.07107C160.047 8.46159 160.681 8.46159 161.071 8.07107C161.462 7.68054 161.462 7.04738 161.071 6.65685L154.707 0.292893ZM7.29289 259.707C7.68342 260.098 8.31658 260.098 8.70711 259.707L15.0711 253.343C15.4616 252.953 15.4616 252.319 15.0711 251.929C14.6805 251.538 14.0474 251.538 13.6569 251.929L8 257.586L2.34315 251.929C1.95262 251.538 1.31946 251.538 0.928932 251.929C0.538408 252.319 0.538408 252.953 0.928932 253.343L7.29289 259.707ZM9 252.74C9 252.188 8.55228 251.74 8 251.74C7.44772 251.74 7 252.188 7 252.74H9ZM7 240.22C7 240.772 7.44772 241.22 8 241.22C8.55228 241.22 9 240.772 9 240.22H7ZM9 227.7C9 227.148 8.55228 226.7 8 226.7C7.44772 226.7 7 227.148 7 227.7H9ZM7 215.18C7 215.732 7.44772 216.18 8 216.18C8.55228 216.18 9 215.732 9 215.18H7ZM9 202.66C9 202.108 8.55228 201.66 8 201.66C7.44772 201.66 7 202.108 7 202.66H9ZM7 190.14C7 190.692 7.44772 191.14 8 191.14C8.55228 191.14 9 190.692 9 190.14H7ZM9 177.62C9 177.068 8.55228 176.62 8 176.62C7.44772 176.62 7 177.068 7 177.62H9ZM7 165.1C7 165.652 7.44772 166.1 8 166.1C8.55228 166.1 9 165.652 9 165.1H7ZM9 152.58C9 152.028 8.55228 151.58 8 151.58C7.44772 151.58 7 152.028 7 152.58H9ZM7 140.06C7 140.612 7.44772 141.06 8 141.06C8.55228 141.06 9 140.612 9 140.06H7ZM9 127.54C9 126.988 8.55228 126.54 8 126.54C7.44772 126.54 7 126.988 7 127.54H9ZM7 115.02C7 115.572 7.44772 116.02 8 116.02C8.55228 116.02 9 115.572 9 115.02H7ZM9 102.5C9 101.948 8.55228 101.5 8 101.5C7.44772 101.5 7 101.948 7 102.5H9ZM7 89.9798C7 90.5321 7.44772 90.9798 8 90.9798C8.55228 90.9798 9 90.5321 9 89.9798H7ZM9 77.4598C9 76.9075 8.55228 76.4598 8 76.4598C7.44772 76.4598 7 76.9075 7 77.4598H9ZM7 64.9398C7 65.492 7.44772 65.9398 8 65.9398C8.55228 65.9398 9 65.492 9 64.9398H7ZM14.0833 59.6798C14.6356 59.6798 15.0833 59.232 15.0833 58.6798C15.0833 58.1275 14.6356 57.6798 14.0833 57.6798V59.6798ZM26.25 57.6798C25.6977 57.6798 25.25 58.1275 25.25 58.6798C25.25 59.232 25.6977 59.6798 26.25 59.6798V57.6798ZM38.4167 59.6798C38.969 59.6798 39.4167 59.232 39.4167 58.6798C39.4167 58.1275 38.969 57.6798 38.4167 57.6798V59.6798ZM50.5833 57.6798C50.0311 57.6798 49.5833 58.1275 49.5833 58.6798C49.5833 59.232 50.0311 59.6798 50.5833 59.6798V57.6798ZM62.75 59.6798C63.3023 59.6798 63.75 59.232 63.75 58.6798C63.75 58.1275 63.3023 57.6798 62.75 57.6798V59.6798ZM74.9167 57.6798C74.3644 57.6798 73.9167 58.1275 73.9167 58.6798C73.9167 59.232 74.3644 59.6798 74.9167 59.6798V57.6798ZM87.0833 59.6798C87.6356 59.6798 88.0833 59.232 88.0833 58.6798C88.0833 58.1275 87.6356 57.6798 87.0833 57.6798V59.6798ZM99.25 57.6798C98.6977 57.6798 98.25 58.1275 98.25 58.6798C98.25 59.232 98.6977 59.6798 99.25 59.6798V57.6798ZM111.417 59.6798C111.969 59.6798 112.417 59.232 112.417 58.6798C112.417 58.1275 111.969 57.6798 111.417 57.6798V59.6798ZM123.583 57.6798C123.031 57.6798 122.583 58.1275 122.583 58.6798C122.583 59.232 123.031 59.6798 123.583 59.6798V57.6798ZM135.75 59.6798C136.302 59.6798 136.75 59.232 136.75 58.6798C136.75 58.1275 136.302 57.6798 135.75 57.6798V59.6798ZM147.917 57.6798C147.364 57.6798 146.917 58.1275 146.917 58.6798C146.917 59.232 147.364 59.6798 147.917 59.6798V57.6798ZM155 51.4698C155 50.9175 154.552 50.4698 154 50.4698C153.448 50.4698 153 50.9175 153 51.4698H155ZM153 37.0499C153 37.6021 153.448 38.0499 154 38.0499C154.552 38.0499 155 37.6021 155 37.0499H153ZM155 22.6299C155 22.0776 154.552 21.6299 154 21.6299C153.448 21.6299 153 22.0776 153 22.6299H155ZM153 8.20997C153 8.76225 153.448 9.20997 154 9.20997C154.552 9.20997 155 8.76225 155 8.20997H153ZM9 259V252.74H7V259H9ZM9 240.22V227.7H7V240.22H9ZM9 215.18V202.66H7V215.18H9ZM9 190.14V177.62H7V190.14H9ZM9 165.1V152.58H7V165.1H9ZM9 140.06V127.54H7V140.06H9ZM9 115.02V102.5H7V115.02H9ZM9 89.9798V77.4598H7V89.9798H9ZM9 64.9398V58.6798H7V64.9398H9ZM8 59.6798H14.0833V57.6798H8V59.6798ZM26.25 59.6798H38.4167V57.6798H26.25V59.6798ZM50.5833 59.6798H62.75V57.6798H50.5833V59.6798ZM74.9167 59.6798H87.0833V57.6798H74.9167V59.6798ZM99.25 59.6798H111.417V57.6798H99.25V59.6798ZM123.583 59.6798H135.75V57.6798H123.583V59.6798ZM147.917 59.6798H154V57.6798H147.917V59.6798ZM155 58.6798V51.4698H153V58.6798H155ZM155 37.0499V22.6299H153V37.0499H155ZM155 8.20997V1H153V8.20997H155Z" fill="#96A2FF"/>
</svg>
